<svg xmlns="http://www.w3.org/2000/svg" xmlns:xlink="http://www.w3.org/1999/xlink" width="346.391" height="342.892" viewBox="0 0 346.391 342.892">
  <defs>
    <clipPath id="clip-path">
      <path id="Path_85" data-name="Path 85" d="M21.248-183.5H256.026a15.586,15.586,0,0,1,3.329.344,20.94,20.94,0,0,1,2.87.8,6.25,6.25,0,0,1,2.067,1.263,2.552,2.552,0,0,1,.918,1.492l9.988,55.451a2.4,2.4,0,0,1-.459,1.952,4.6,4.6,0,0,1-1.722,1.607,12.215,12.215,0,0,1-2.87,1.033,19.893,19.893,0,0,1-3.674.344H1.042a17.823,17.823,0,0,1-3.559-.344,13.459,13.459,0,0,1-2.755-1.033,3.386,3.386,0,0,1-1.492-1.607,2.3,2.3,0,0,1-.115-1.952L11.49-179.6a3.73,3.73,0,0,1,1.148-1.492,8.972,8.972,0,0,1,2.3-1.263,12.706,12.706,0,0,1,2.985-.8A16.394,16.394,0,0,1,21.248-183.5Z" transform="translate(7.039 183.5)"/>
    </clipPath>
  </defs>
  <g id="Group_1072" data-name="Group 1072" transform="translate(-45.046 11.227)">
    <path id="Path_84" data-name="Path 84" d="M366.646,246.431C346,267.081,322.79,280.3,309.588,309.574c0,.115-.115.115-.115.23a2.512,2.512,0,0,1-.344.574,25.71,25.71,0,0,1-11.251,12.284c-11.366,6.2-27.094,4.363-38,1.722a102.111,102.111,0,0,1-12.514-3.789c-.23-.115-.459-.115-.689-.23-23.42-7.118-15.384,15.5-53.155,19.861a72.416,72.416,0,0,1-10.1.344h0c-19.287-.8-42.134-8.955-59.814-16.647-9.873-4.363-18.254-8.5-23.306-11.251a27.984,27.984,0,0,1-11.94-11.71c-10.218-18.828-2.755-43.167,3.559-57.4a31.657,31.657,0,0,0-1.148-27.668c-4.937-9.3-13.777-19.747-22.617-30.309s-26.236-16.7-22.9-54.308c6.733-32.3,17.719-17.652,22.9-84.214C70,22.684,87.755,10.243,94.085,6.173c36.806-21.25,79.13,9.4,117.84,9.4,26.547,0,55.34-17.851,86.672-17.851,48.5,0,86.773,30.656,90.486,54.276,6.778,43.112-4.878,60.289-3.264,87.909C386.152,145.609,399.575,220.573,366.646,246.431Z" transform="translate(0.218 -8.951)" fill="#f5e5e5"/>
    <g id="Layer_2" transform="translate(77.242 102.671)">
      <g id="Map_1_" transform="translate(0 0)">
        <g id="Map-2_1_" transform="translate(0 0)">
          <path id="Rectangle_202-2_1_" d="M21.248-183.5H256.026a15.586,15.586,0,0,1,3.329.344,20.94,20.94,0,0,1,2.87.8,6.25,6.25,0,0,1,2.067,1.263,2.552,2.552,0,0,1,.918,1.492l9.988,55.451a2.4,2.4,0,0,1-.459,1.952,4.6,4.6,0,0,1-1.722,1.607,12.215,12.215,0,0,1-2.87,1.033,19.893,19.893,0,0,1-3.674.344H1.042a17.823,17.823,0,0,1-3.559-.344,13.459,13.459,0,0,1-2.755-1.033,3.386,3.386,0,0,1-1.492-1.607,2.3,2.3,0,0,1-.115-1.952L11.49-179.6a3.73,3.73,0,0,1,1.148-1.492,8.972,8.972,0,0,1,2.3-1.263,12.706,12.706,0,0,1,2.985-.8A16.394,16.394,0,0,1,21.248-183.5Z" transform="translate(7.039 183.5)" fill="#d48d2a"/>
          <g id="Group_770" data-name="Group 770" transform="translate(0 0.003)">
            <g id="Group_770_1_" transform="translate(0 0)" clip-path="url(#clip-path)">
              <path id="Path_84_1_" d="M257.65-155.262h11.71l-.23-1.263H226.308l-.459-4.592a12.649,12.649,0,0,0,2.067-.23,8.6,8.6,0,0,0,1.837-.459,9.675,9.675,0,0,0,1.607-.689,4.741,4.741,0,0,0,1.263-.8,3.1,3.1,0,0,0,.8-.918,1.852,1.852,0,0,0,.344-1.033,3.178,3.178,0,0,0-.115-1.033,4.654,4.654,0,0,0-.574-1.033l34.327-9.758-1.378-1.033-34.1,9.644a8.693,8.693,0,0,0-2.067-1.033,9.122,9.122,0,0,0-2.526-.689,22.586,22.586,0,0,0-2.755-.344,24,24,0,0,0-2.87.115l-9.873-15.154-2.3.344,9.988,15.269a10.374,10.374,0,0,0-2.411.918,14.958,14.958,0,0,0-1.722,1.148,2.755,2.755,0,0,0-.8,1.378,2.239,2.239,0,0,0,.115,1.492,3.375,3.375,0,0,0,1.148,1.378,6.72,6.72,0,0,0,1.952,1.148,10.08,10.08,0,0,0,2.641.8,28.852,28.852,0,0,0,3.1.459l.459,4.592H180.386l-.23-26.52h-2.411l.115,26.52H116.783l37.082-28.587L151.8-185.8l-38,29.161H94.052a4.808,4.808,0,0,0-1.033-3.1,8.759,8.759,0,0,0-3.215-2.526,24.534,24.534,0,0,0-4.822-1.837,38.2,38.2,0,0,0-6.2-.8l3.559-18.943H79.93l-3.674,18.943a33.189,33.189,0,0,0-6.659.918,32.224,32.224,0,0,0-5.625,1.837,19.453,19.453,0,0,0-4.133,2.641,6.285,6.285,0,0,0-1.952,3.215,4.288,4.288,0,0,0,.574,3.329,7.7,7.7,0,0,0,2.985,2.755,15.309,15.309,0,0,0,4.937,1.952,31.009,31.009,0,0,0,6.544.918L69.483-130H13.8l7.922-26.52H57.773l.344-1.263H22.068l7.577-25.487H27.234L11.162-130h-16.3l-.459,1.378H10.588l-2.87,9.873h2.755l2.87-9.644h55.8L67.3-118.753h2.755l.459-2.641L130.1-138.385l-1.607,19.517h2.755l1.607-20.321,44.659-12.629.115,33.064h2.755l-.23-21.928,29.275.459,14.81,24.8,2.641-.344-14.7-24.339,59.929,1.033L272-140.452l-20.435-.344Zm-40.641-10.677a2.206,2.206,0,0,1,.459-1.378,3.5,3.5,0,0,1,1.492-1.033,8,8,0,0,1,2.181-.689,11.18,11.18,0,0,1,2.755-.23,26.247,26.247,0,0,1,2.87.23,9.531,9.531,0,0,1,2.411.689,4.816,4.816,0,0,1,1.607,1.033,2,2,0,0,1,.689,1.378,2.206,2.206,0,0,1-.459,1.378,6.66,6.66,0,0,1-1.378,1.148,16.747,16.747,0,0,1-2.181.8,11.18,11.18,0,0,1-2.755.23,24.172,24.172,0,0,1-2.87-.23,9.92,9.92,0,0,1-2.411-.8,5.176,5.176,0,0,1-1.607-1.148,1.5,1.5,0,0,1-.8-1.378ZM60.3-156.18a6.243,6.243,0,0,1,1.837-2.985,13.258,13.258,0,0,1,3.789-2.411,28.053,28.053,0,0,1,5.281-1.607,35.267,35.267,0,0,1,6.085-.574,33.722,33.722,0,0,1,5.855.574,16.827,16.827,0,0,1,4.592,1.607,7.359,7.359,0,0,1,2.87,2.411,3.482,3.482,0,0,1,.689,2.985,5.293,5.293,0,0,1-1.722,2.985,13.256,13.256,0,0,1-3.789,2.411,28.4,28.4,0,0,1-5.281,1.722,28.736,28.736,0,0,1-6.314.574,33.95,33.95,0,0,1-5.97-.574,15.8,15.8,0,0,1-4.592-1.722,8.278,8.278,0,0,1-2.87-2.411,4.485,4.485,0,0,1-.459-2.985ZM70.861-123l4.592-24.109a39.372,39.372,0,0,0,6.429-.8,28.039,28.039,0,0,0,5.511-1.722,18.986,18.986,0,0,0,4.133-2.526,6.958,6.958,0,0,0,2.181-2.985h37.771l-1.263,15.384Zm62.225-17.68,1.148-14.58h43.282v1.952Zm47.185-1.378-.115-13.2h20.435l8.151,13.662Zm22.961-13.2h51.777l-6.2,14.466-37.312-.689Z" transform="translate(7.253 183.159)" fill="#fff"/>
            </g>
          </g>
        </g>
      </g>
      <path id="Icon_metro-location_1_" d="M47.418-149.3a4.068,4.068,0,0,0-4.018,4.018c0,4.018,4.018,8.84,4.018,8.84s4.018-4.822,4.018-8.84A3.993,3.993,0,0,0,47.418-149.3Zm0,6.429a2.425,2.425,0,0,1-2.411-2.411,2.425,2.425,0,0,1,2.411-2.411,2.425,2.425,0,0,1,2.411,2.411,2.425,2.425,0,0,1-2.411,2.411Zm-1.607-2.411a1.642,1.642,0,0,1,1.607-1.607,1.642,1.642,0,0,1,1.607,1.607,1.642,1.642,0,0,1-1.607,1.607h0A1.725,1.725,0,0,1,45.811-145.282Z" transform="translate(10.634 187.828)" fill="#fff"/>
      <path id="Icon_metro-location-2_1_" d="M15.718-177.9a4.068,4.068,0,0,0-4.018,4.018c0,4.018,4.018,8.84,4.018,8.84s4.018-4.822,4.018-8.84A4.068,4.068,0,0,0,15.718-177.9Zm0,6.429a2.425,2.425,0,0,1-2.411-2.411,2.425,2.425,0,0,1,2.411-2.411,2.5,2.5,0,0,1,2.411,2.411,2.354,2.354,0,0,1-2.411,2.411Zm-1.492-2.411a1.642,1.642,0,0,1,1.607-1.607,1.642,1.642,0,0,1,1.607,1.607,1.642,1.642,0,0,1-1.607,1.607h0A1.725,1.725,0,0,1,14.226-173.882Z" transform="translate(5.94 183.593)" fill="#fff"/>
      <path id="Icon_metro-location-3_1_" d="M172.963-141.9a4.361,4.361,0,0,0-4.363,4.363h0c0,4.363,4.363,9.644,4.363,9.644s4.363-5.281,4.363-9.644a4.361,4.361,0,0,0-4.363-4.363Zm0,7.118a2.6,2.6,0,0,1-2.641-2.641,2.6,2.6,0,0,1,2.641-2.641,2.6,2.6,0,0,1,2.641,2.641,2.67,2.67,0,0,1-2.641,2.641Zm-1.722-2.755a1.766,1.766,0,0,1,1.722-1.722,1.766,1.766,0,0,1,1.722,1.722,1.766,1.766,0,0,1-1.722,1.722,1.691,1.691,0,0,1-1.722-1.722Z" transform="translate(29.171 188.923)" fill="#fff"/>
      <path id="Icon_metro-location-4_1_" d="M97.963-176.6a4.361,4.361,0,0,0-4.363,4.363h0c0,4.363,4.363,9.644,4.363,9.644s4.363-5.281,4.363-9.644a4.289,4.289,0,0,0-4.363-4.363Zm0,7a2.6,2.6,0,0,1-2.641-2.641,2.6,2.6,0,0,1,2.641-2.641,2.6,2.6,0,0,1,2.641,2.641,2.531,2.531,0,0,1-2.641,2.641Zm-1.607-2.641a1.766,1.766,0,0,1,1.722-1.722,1.766,1.766,0,0,1,1.722,1.722,1.766,1.766,0,0,1-1.722,1.722,1.691,1.691,0,0,1-1.722-1.722Z" transform="translate(18.066 183.786)" fill="#fff"/>
      <path id="Icon_metro-location-5_1_" d="M228.563-174.3a4.361,4.361,0,0,0-4.363,4.363h0c0,4.363,4.363,9.644,4.363,9.644s4.363-5.281,4.363-9.644a4.361,4.361,0,0,0-4.363-4.363Zm0,7a2.6,2.6,0,0,1-2.641-2.641,2.6,2.6,0,0,1,2.641-2.641,2.6,2.6,0,0,1,2.641,2.641,2.6,2.6,0,0,1-2.641,2.641Zm-1.722-2.641a1.766,1.766,0,0,1,1.722-1.722,1.766,1.766,0,0,1,1.722,1.722,1.766,1.766,0,0,1-1.722,1.722,1.766,1.766,0,0,1-1.722-1.722Z" transform="translate(37.403 184.126)" fill="#fff"/>
    </g>
    <g id="Group_771" transform="translate(123.535 127.425)">
      <path id="Path_85-2" data-name="Path_85" d="M303.82,475.282s-10.218,20.435-20.55,34.557c-4.133,5.625-8.266,10.218-11.825,12.169a28.2,28.2,0,0,0-8.84,8.036,65.152,65.152,0,0,0-9.184,18.828L226.9,508.691s.918-39.264,4.133-45.808c4.592-9.529,6.888-28.816,8.61-32.72,1.378-2.87,5.051-17.565,5.511-18.713a3.9,3.9,0,0,1,3.1-1.148,4.874,4.874,0,0,1,4.133,3.9,43.916,43.916,0,0,1-.574,22.158c1.033,10.1-1.952,17.565.115,19.632.115.115.23,0,.459-.115,3.674-2.3,26.291-35.475,29.161-36.164C284.3,419.142,303.82,475.282,303.82,475.282Z" transform="translate(-192.803 -395.837)" fill="#ffb27d"/>
      <path id="Union_6" data-name="Union 6" d="M2434.223,185.834a1.606,1.606,0,0,1,.345-.574l.057-.114h-.172c15.269-32.605,28.587-60.044,28.587-60.044s38.116,1.147,39.722,18.254c0,0-.344,17.795-1.377,41.79,0,.574-.115,2.87-.689,13.317-.114,2.525-2.641,3.788-6.658,4.018C2474.749,201.677,2451.9,193.526,2434.223,185.834Z" transform="translate(-2434.223 1.759)" fill="#456079"/>
      <path id="Path_87" d="M317.52,407.929l-8.266,12.055-8.036,11.825a1.637,1.637,0,0,1-1.722.689c-1.952-.23-4.363-2.985-6.2-4.477l-.23-.115a5.931,5.931,0,0,1-.8-8.151l12.284-14.925h0l3.674-4.363a5.931,5.931,0,0,1,8.151-.8l.23.115A5.639,5.639,0,0,1,317.52,407.929Z" transform="translate(-183.312 -397.596)" fill="#ffb27d"/>
      <path id="Path_88" d="M308.159,419.154l-8.036,11.825a1.637,1.637,0,0,1-1.722.689L303.681,404C303.681,404.115,304.485,416.514,308.159,419.154Z" transform="translate(-182.216 -396.767)" fill="#efa26f"/>
      <path id="Path_89" d="M280.212,497.326c-4.133,5.625-8.266,10.218-11.825,12.169a28.2,28.2,0,0,0-8.84,8.036c-2.755-1.263-5.97-2.87-9.07-4.363a5.2,5.2,0,0,1-2.411-6.888,5.97,5.97,0,0,1,2.181-2.3l.115-.115c3.444-1.952,7-9.07,7-9.07Z" transform="translate(-189.745 -383.324)" fill="#efa26f"/>
      <path id="Path_90" d="M242.881,412l-2.181,8.725a4.144,4.144,0,0,0,3.1.115C244.948,420.151,245.981,412.459,242.881,412Z" transform="translate(-190.759 -395.583)" fill="#ffc197"/>
      <path id="Rectangle_203" d="M259.333,397.7h42.019a10.29,10.29,0,0,1,10.332,10.333v97.355a10.29,10.29,0,0,1-10.332,10.333H259.333A10.29,10.29,0,0,1,249,505.388V408.033A10.29,10.29,0,0,1,259.333,397.7Z" transform="translate(-189.531 -397.7)" fill="#244461"/>
      <path id="Path_91" d="M308.185,406.385v99.192a6.125,6.125,0,0,1-6.085,6.085H257.785a6.125,6.125,0,0,1-6.085-6.085V406.385a6.125,6.125,0,0,1,6.085-6.085H302.1A6.051,6.051,0,0,1,308.185,406.385Z" transform="translate(-189.007 -397.315)" fill="#fff"/>
      <path id="Rectangle_204" d="M268.685,398.3h18.139a3.039,3.039,0,0,1,2.985,2.985h0a3.039,3.039,0,0,1-2.985,2.985H268.685a3.039,3.039,0,0,1-2.985-2.985h0A3.039,3.039,0,0,1,268.685,398.3Z" transform="translate(-187.058 -397.611)" fill="#244461"/>
      <path id="Path_92" d="M312.721,447.736l-1.263.459-8.266,3.1c-.23.115-.344.115-.574.23a5.7,5.7,0,0,1-6.659-3.444l-.115-.344a5.7,5.7,0,0,1,3.215-7.233l7.692-2.87.574-.23,1.263-.459a5.694,5.694,0,0,1,7.233,3.215l.115.344A5.6,5.6,0,0,1,312.721,447.736Z" transform="translate(-182.645 -391.94)" fill="#ffb27d"/>
      <path id="Path_93" d="M305.751,447.359a29.725,29.725,0,0,1-5.166,1.607,2.442,2.442,0,0,1-1.722-.8,5.822,5.822,0,0,1-1.033-1.837,4.08,4.08,0,0,1-.23-1.148V443.8a1.461,1.461,0,0,1,.8-1.033h0a29.379,29.379,0,0,1,4.937-1.952,2.084,2.084,0,0,1,2.641,1.148l.23.459.918,2.411A2.081,2.081,0,0,1,305.751,447.359Z" transform="translate(-182.335 -391.333)" fill="#ffd3b6"/>
      <path id="Path_94" d="M305.648,447.181a29.726,29.726,0,0,1-5.166,1.607,2.442,2.442,0,0,1-1.722-.8c-.115-.115-.115-.344-.23-.459a4.079,4.079,0,0,1-.23-1.148V445a1.46,1.46,0,0,1,.8-1.033h0a29.383,29.383,0,0,1,4.937-1.952,2.277,2.277,0,0,1,2.066.344l.918,2.411A2.01,2.01,0,0,1,305.648,447.181Z" transform="translate(-182.231 -391.156)" fill="#ffc197"/>
      <path id="Path_95" d="M308.74,457.411l-6.314,1.722a3.6,3.6,0,0,1-4.477-2.526l-.23-.689a3.6,3.6,0,0,1,2.526-4.477l6.314-1.722a3.6,3.6,0,0,1,4.477,2.526l.23.689A3.693,3.693,0,0,1,308.74,457.411Z" transform="translate(-182.339 -390.02)" fill="#ffb27d"/>
      <path id="Path_96" d="M305.144,456.774a26.729,26.729,0,0,1-4.363.918,2.159,2.159,0,0,1-1.722-1.378,4.813,4.813,0,0,1-.459-1.837,3.179,3.179,0,0,1,.115-1.033,1.035,1.035,0,0,1,.689-.689h0a25.693,25.693,0,0,1,4.248-1.148,1.643,1.643,0,0,1,2.067,1.148l.115.574.459,1.722a1.3,1.3,0,0,1-1.148,1.722Z" transform="translate(-182.187 -389.727)" fill="#ffd3b6"/>
      <path id="Path_97" d="M305.1,456.652a26.726,26.726,0,0,1-4.363.918,2.159,2.159,0,0,1-1.722-1.378,2.237,2.237,0,0,1-.115-.918,3.177,3.177,0,0,1,.115-1.033,1.035,1.035,0,0,1,.689-.689h0a25.7,25.7,0,0,1,4.248-1.148,2.1,2.1,0,0,1,1.952.689l.459,1.722a1.489,1.489,0,0,1-1.263,1.837Z" transform="translate(-182.142 -389.605)" fill="#ffc197"/>
      <path id="Path_98" d="M216.7,522.31s13.088,12.514,21.928,17.336l6.659-4.707v7s13.088,2.3,17.221,0V522.884L225.655,504.4Z" transform="translate(-194.313 -381.902)" fill="#244461"/>
      <path id="Path_99" d="M265.9,541.871c-5.051,1.033-16.073-2.985-16.073-2.985l1.722-16.991-12.4,14.121c-6.314-2.3-16.188-8.5-21.928-12.284-2.87-1.837-4.822-3.215-4.822-3.215,8.266-13.318,16.532-25.717,16.532-25.717,2.411,4.822,8.151,9.07,14.466,12.514a127.851,127.851,0,0,0,22.158,8.955C265.555,526.372,265.9,541.871,265.9,541.871Z" transform="translate(-194.95 -383.324)" fill="#fff"/>
      <path id="Path_100" d="M312.559,437.5h-.115l-8.381,2.181a6.805,6.805,0,0,1-8.381-4.363l-.459-1.722A6.416,6.416,0,0,1,299.7,425.9l2.755-.689,5.625-1.378a6.805,6.805,0,0,1,8.381,4.363l.459,1.722A6.331,6.331,0,0,1,312.559,437.5Z" transform="translate(-182.714 -393.871)" fill="#ffb27d"/>
      <path id="Path_101" d="M308,434.8l-4.018,1.837h0c-.115,0-.344.115-.459.115h-.344a.643.643,0,0,1-.574-.689c0-.115,0-.115.115-.23a4.489,4.489,0,0,0,.23-2.755l-.115-.344h0l-.344-1.148a4.471,4.471,0,0,0-1.492-2.3l-.23-.23a1.04,1.04,0,0,1-.23-1.607,1.146,1.146,0,0,1,.574-.459h0l4.477-.689A2.086,2.086,0,0,1,308,427.912l.344,1.263.8,2.755C309.377,433.194,309.147,434.456,308,434.8Z" transform="translate(-181.942 -393.471)" fill="#ffd3b6"/>
      <path id="Path_102" d="M307.9,434.566l-4.018,1.837h0a4.074,4.074,0,0,1-.8.115.643.643,0,0,1-.574-.689c0-.115,0-.115.115-.23a4.49,4.49,0,0,0,.23-2.755l-.115-.344h0l-.344-1.148a4.472,4.472,0,0,0-1.492-2.3,1.054,1.054,0,0,1,.689-.459h0l4.477-.689a2.013,2.013,0,0,1,2.3,1.148l.8,2.755C309.281,432.959,309.051,434.222,307.9,434.566Z" transform="translate(-181.846 -393.236)" fill="#ffc197"/>
      <path id="Path_103" d="M249.689,479.367s-1.837-15.843-3.444-18.943-3.1-9.3-.459-13.892S249.23,433.1,249.23,433.1c1.033,10.1-1.952,17.565.115,19.632.115.115.23,0,.459-.115Z" transform="translate(-190.22 -392.459)" fill="#efa26f"/>
      <path id="Icon_ionic-ios-search" d="M302.045,466.54l-11.685-15.081a19.238,19.238,0,1,0-3.3,2.6l11.586,14.981a2.071,2.071,0,0,0,2.9.4A2.006,2.006,0,0,0,302.045,466.54Zm-26.966-13.883a15.121,15.121,0,1,1,11.186-3.1A15.509,15.509,0,0,1,275.078,452.657Z" transform="translate(-186.044 -392.009)" fill="#a92428"/>
      <path id="Path_87-2" data-name="Path 87" d="M369.248,562.066a2.514,2.514,0,0,1-.344.574,25.71,25.71,0,0,1-11.251,12.284h-35.59c-2.3-1.607-14.58-9.873-19.632-16.073-1.033-1.263-4.592-11.366-7.462-20.091v-.115a10.679,10.679,0,0,1-.459-1.492c-1.837-5.74-3.444-10.677-3.674-11.71-.115-.689-.115-1.263-.23-1.952h0v-.23c-.115-3.674,0-10.792.23-16.532v-1.148c0-.918.115-1.837.115-2.641v-.23c.115-2.181.115-3.789.115-4.363V498a4.434,4.434,0,0,1,1.837-.344,6.671,6.671,0,0,1,3.789,1.378,8.647,8.647,0,0,1,2.066,3.444c0,.115,0,.115.115.23a22.661,22.661,0,0,1,.918,2.985c.115.23.115.459.23.689,1.378,5.166,2.411,11.251,2.87,12.858.8,2.641,10.907,14.351,11.481,15.04h0V515.914l-7.577-20.206-1.263-3.444-1.837-4.822L302.431,484l-.23-.689a75.639,75.639,0,0,1-4.363-8.61,42.385,42.385,0,0,1-2.181-6.429c-.115-.459-.23-1.033-.344-1.492a14.069,14.069,0,0,1-.23-2.181v-.574h0a6.5,6.5,0,0,1,.344-2.066,3.271,3.271,0,0,1,2.181-2.526,3.15,3.15,0,0,1,1.492-.23h.344a.422.422,0,0,1,.344.115.877.877,0,0,1,.574.23h0a2.682,2.682,0,0,1,.8.8s.459.574,1.148,1.607c.344.459.8,1.033,1.263,1.722.574.689,1.148,1.492,1.837,2.411a16.432,16.432,0,0,1,1.263,1.722c1.837,2.526,3.674,4.822,4.133,5.4,2.64,3.674,9.644,15.5,9.644,15.5l8.151.344a5.535,5.535,0,0,1,3.444,1.492c2.87,2.755,9.184,8.61,9.988,9.414,0,.344,4.937,2.641,8.61,4.707,2.755,1.148,7.807,5.166,7.807,5.166a10.494,10.494,0,0,1,2.3,2.755c1.607,3.559,5.74,31.916,8.266,49.137C369.248,561.836,369.248,561.951,369.248,562.066Z" transform="translate(-183.377 -388.594)" fill="#ffb27d"/>
      <path id="Path_105" d="M316.7,485s7.577,12.4,8.61,12.973,4.937,1.378,5.4,0S316.7,485,316.7,485Z" transform="translate(-179.507 -384.775)" fill="#efa26f"/>
      <path id="Path_106" d="M352.132,504.773h0s-5.166-4.133-7.922-5.281c-3.444-1.952-7.922-4.018-8.61-4.592.8.918,6.429,7.348,8.61,7.807C346.277,503.166,350.64,504.314,352.132,504.773Z" transform="translate(-176.709 -383.309)" fill="#efa26f"/>
      <path id="Path_107" d="M311.3,527.284V508.8s4.363,7.348,4.707,11.366S314.285,530.728,311.3,527.284Z" transform="translate(-180.307 -381.251)" fill="#efa26f"/>
      <path id="Path_108" d="M297.787,466.792a29.657,29.657,0,0,1-2.181-4.248,1.992,1.992,0,0,1,.344-1.607,2.767,2.767,0,0,1,1.148-1.148,2.877,2.877,0,0,1,.8-.459,3.351,3.351,0,0,1,1.033-.23,1.417,1.417,0,0,1,.918.459h0a28.648,28.648,0,0,1,2.411,4.018,2.1,2.1,0,0,1-.344,2.526l-.344.23-1.607,1.148a1.531,1.531,0,0,1-2.066-.574C297.787,466.907,297.787,466.907,297.787,466.792Z" transform="translate(-182.637 -388.609)" fill="#ffd3b6"/>
      <path id="Path_109" d="M297.787,466.674a29.658,29.658,0,0,1-2.181-4.248,1.992,1.992,0,0,1,.344-1.607c.115-.115.23-.115.344-.23a2.878,2.878,0,0,1,.8-.459,3.353,3.353,0,0,1,1.033-.23,1.417,1.417,0,0,1,.918.459h0a28.645,28.645,0,0,1,2.411,4.018,2.51,2.51,0,0,1,.115,1.837l-1.607,1.148a1.531,1.531,0,0,1-2.066-.574C297.787,466.788,297.787,466.788,297.787,466.674Z" transform="translate(-182.637 -388.491)" fill="#ffc197"/>
      <path id="Path_110" d="M346.022,557.824l-14.7,7.577h-9.759c-2.3-1.607-14.58-9.873-19.632-16.073C300.9,548.065,297,536.7,293.9,527.4h0c.344,1.263,8.84,19.173,11.251,21.124s14.925,13.891,18.369,13.777,21.239-4.248,22.5-4.477Z" transform="translate(-182.883 -378.497)" fill="#efa26f"/>
      <path id="Path_88-2" data-name="Path 88" d="M365.611,548.615c0,.115-.115.115-.115.23a2.51,2.51,0,0,1-.344.574A25.71,25.71,0,0,1,353.9,561.7c-11.366,6.2-27.094,4.363-38,1.722l1.148-.574a6.081,6.081,0,0,0,1.148-.689c.344-.115.574-.344.918-.459,1.722-.919,4.018-2.067,6.774-3.33h0c11.6-5.625,29.964-13.088,39.608-9.873A.112.112,0,0,0,365.611,548.615Z" transform="translate(-179.625 -375.488)" fill="#f2f7ff"/>
      <path id="Path_112" d="M290.83,499.738h0c.918-.344,2.181-.574,2.755.459.918,1.607-2.526,15.5-2.985,17.221Z" transform="translate(-183.371 -382.636)" fill="#efa26f"/>
      <path id="Path_113" d="M291.044,493.2l-.344,8.381a4.555,4.555,0,0,0,2.755-.459C294.6,500.433,294.029,493.085,291.044,493.2Z" transform="translate(-183.357 -383.561)" fill="#ffc197"/>
      <path id="Path_114" d="M265.278,540.157c-5.051,1.033-16.073-2.985-16.073-2.985l1.722-16.991-12.4,14.121c-6.314-2.3-16.188-8.5-21.928-12.284,14.925-1.607,26.176-16.417,26.176-16.417a127.842,127.842,0,0,0,22.158,8.955C264.933,524.773,265.278,540.157,265.278,540.157Z" transform="translate(-194.328 -381.725)" fill="#f2f7ff"/>
      <circle id="Ellipse_16" cx="2.067" cy="2.067" r="2.067" transform="translate(36.118 145.115) rotate(-89.47)" fill="#f99746"/>
      <path id="Icon_awesome-box" data-name="Icon awesome-box" d="M15.688,5.684,14.13,1.01A1.474,1.474,0,0,0,12.729,0H8.375V5.912h7.35A1.407,1.407,0,0,0,15.688,5.684ZM7.39,0H3.036a1.474,1.474,0,0,0-1.4,1.01L.077,5.684a1.406,1.406,0,0,0-.037.228H7.39ZM0,6.9v7.39a1.478,1.478,0,0,0,1.478,1.478H14.287a1.478,1.478,0,0,0,1.478-1.478V6.9Z" transform="translate(83.052 38.038)" fill="#ffb0b1"/>
    </g>
    <g id="Group_1060" data-name="Group 1060" transform="translate(-150.68 -26.369) rotate(-15)">
      <g id="Group_771-2" data-name="Group 771" transform="translate(290.474 177.989)">
        <path id="Path_112-2" data-name="Path 112" d="M13.477,0A13.477,13.477,0,1,1,0,13.477,13.477,13.477,0,0,1,13.477,0Z" transform="translate(0)" fill="#a92428"/>
      </g>
      <path id="Icon_ionic-ios-phone-portrait" data-name="Icon ionic-ios-phone-portrait" d="M16.508,2.25H11.227a1.1,1.1,0,0,0-1.1,1.1V16.031a1.128,1.128,0,0,0,1.1,1.135H16.5a1.106,1.106,0,0,0,1.075-1.135V3.345A1.068,1.068,0,0,0,16.508,2.25Zm-3.153.766h1a.133.133,0,1,1,0,.266h-1a.133.133,0,0,1,0-.266Zm.516,13.651a.579.579,0,1,1,.579-.579A.58.58,0,0,1,13.871,16.667Zm3.113-1.631h-6.26a.067.067,0,0,1-.067-.067V4.015a.067.067,0,0,1,.067-.067h6.26a.067.067,0,0,1,.067.067V14.969A.067.067,0,0,1,16.984,15.036Z" transform="translate(290.098 181.758)" fill="#fff"/>
    </g>
    <g id="Group_1068" data-name="Group 1068" transform="matrix(0.961, -0.276, 0.276, 0.961, -42.399, 107.151)">
      <g id="Group_771-3" data-name="Group 771" transform="translate(290.474 177.989)">
        <path id="Path_112-3" data-name="Path 112" d="M16.315,0A16.315,16.315,0,1,1,0,16.315,16.315,16.315,0,0,1,16.315,0Z" transform="translate(0)" fill="#a92428"/>
      </g>
      <path id="Icon_ionic-ios-phone-portrait-2" data-name="Icon ionic-ios-phone-portrait" d="M17.852,2.25H11.459a1.326,1.326,0,0,0-1.334,1.326V18.933a1.365,1.365,0,0,0,1.334,1.374h6.389a1.339,1.339,0,0,0,1.3-1.374V3.576A1.293,1.293,0,0,0,17.852,2.25Zm-3.817.927h1.209a.161.161,0,0,1,0,.322H14.035a.161.161,0,0,1,0-.322ZM14.66,19.7a.7.7,0,1,1,.7-.7A.7.7,0,0,1,14.66,19.7Zm3.769-1.975H10.851a.081.081,0,0,1-.081-.081V4.386a.081.081,0,0,1,.081-.081h7.578a.081.081,0,0,1,.081.081V17.647A.081.081,0,0,1,18.428,17.728Z" transform="translate(292.151 183.025)" fill="#fff"/>
    </g>
    <g id="Group_1061" data-name="Group 1061" transform="matrix(0.966, 0.259, -0.259, 0.966, -110.499, -37.74)">
      <g id="Group_771-4" data-name="Group 771" transform="translate(290.474 177.989)">
        <path id="Path_112-4" data-name="Path 112" d="M9.677,0A9.677,9.677,0,1,1,0,9.677,9.677,9.677,0,0,1,9.677,0Z" transform="translate(0)" fill="#a92428"/>
      </g>
      <path id="Icon_map-clothing-store" data-name="Icon map-clothing-store" d="M12.185,7.811a.249.249,0,0,1-.044.2L10.893,9.866a.277.277,0,0,1-.225.111.645.645,0,0,1-.113-.012l-1-.245v4.4a.222.222,0,0,1-.231.231H4.463a.222.222,0,0,1-.231-.231V9.72l-.9.248a.212.212,0,0,1-.252-.1L1.843,8.017a.233.233,0,0,1-.032-.194.226.226,0,0,1,.127-.148L4.463,6.48H5.62a.221.221,0,0,1,.231.231c0,.477.669.815,1.146.815s1.169-.336,1.169-.815A.222.222,0,0,1,8.4,6.48H9.555l2.5,1.171a.249.249,0,0,1,.13.16Z" transform="translate(293.154 177.251)" fill="#f9f9f9"/>
    </g>
    <g id="Group_1062" data-name="Group 1062" transform="translate(-85.255 -233.938) rotate(23)">
      <g id="Group_771-5" data-name="Group 771" transform="translate(290.474 177.989)">
        <path id="Path_112-5" data-name="Path 112" d="M12.119,0A12.119,12.119,0,1,1,0,12.119,12.119,12.119,0,0,1,12.119,0Z" transform="translate(0)" fill="#a92428"/>
      </g>
      <path id="Icon_map-furniture-store" data-name="Icon map-furniture-store" d="M10.686,7.92H1.276a.576.576,0,0,0,0,1.15h.133v1.15h9.158V9.07h.12a.576.576,0,0,0,0-1.15ZM5.981,9.65a.3.3,0,1,1,.275-.3A.287.287,0,0,1,5.981,9.65ZM1.409,12.52h9.158V10.68H1.409Zm4.572-1.236a.3.3,0,1,1-.275.3A.286.286,0,0,1,5.981,11.284ZM1.409,14.107v1.337c0,.163.019.3.171.3h1.1c.151,0,.22-.134.22-.3v-.853H9.076v.853c0,.163.055.3.206.3h1.1c.151,0,.184-.134.184-.3V12.981H1.409Zm4.572-.594a.3.3,0,1,1-.275.3A.287.287,0,0,1,5.981,13.512Z" transform="translate(296.612 178.277)" fill="#fff"/>
    </g>
    <g id="Group_1067" data-name="Group 1067" transform="matrix(0.966, 0.259, -0.259, 0.966, 0.171, -231.73)">
      <g id="Group_771-6" data-name="Group 771" transform="translate(290.474 177.989)">
        <path id="Path_112-6" data-name="Path 112" d="M11.441,0A11.441,11.441,0,1,1,0,11.441,11.441,11.441,0,0,1,11.441,0Z" transform="translate(0)" fill="#a92428"/>
      </g>
      <path id="Icon_metro-headphones" data-name="Icon metro-headphones" d="M5.968,8.723H5.213v5.285h.755a.379.379,0,0,0,.377-.377V9.1a.379.379,0,0,0-.377-.377Zm5.285,0a.379.379,0,0,0-.377.377v4.53a.379.379,0,0,0,.377.377h.755V8.723Zm3.4-.755A6.04,6.04,0,1,0,2.932,10.031a2.643,2.643,0,0,0,1.9,3.95V8.75A2.626,2.626,0,0,0,3.8,9.132a4.907,4.907,0,1,1,9.621,0,2.627,2.627,0,0,0-1.036-.382v5.231a2.643,2.643,0,0,0,1.9-3.95,6.028,6.028,0,0,0,.362-2.063Z" transform="translate(293.27 180.805)" fill="#fff"/>
    </g>
    <g id="Group_1064" data-name="Group 1064" transform="translate(-8.858 -52.467) rotate(-11)">
      <g id="Group_771-7" data-name="Group 771" transform="translate(290.474 177.989)">
        <path id="Path_112-7" data-name="Path 112" d="M15.068,0A15.068,15.068,0,1,1,0,15.068,15.068,15.068,0,0,1,15.068,0Z" transform="translate(0)" fill="#a92428"/>
      </g>
      <path id="Icon_material-computer" data-name="Icon material-computer" d="M14.266,15.966a1.423,1.423,0,0,0,1.419-1.424l.007-7.119A1.429,1.429,0,0,0,14.266,6H2.853A1.429,1.429,0,0,0,1.427,7.424v7.119a1.429,1.429,0,0,0,1.427,1.424H0V17.39H17.119V15.966ZM2.853,7.424H14.266v7.119H2.853Z" transform="translate(296.983 181.362)" fill="#fff"/>
    </g>
  </g>
</svg>
