<svg xmlns="http://www.w3.org/2000/svg" width="346.391" height="342.892" viewBox="0 0 346.391 342.892">
  <g id="Group_1076" data-name="Group 1076" transform="translate(-32.804 -136)">
    <path id="Path_84" data-name="Path 84" d="M366.646,246.431C346,267.081,322.79,280.3,309.588,309.574c0,.115-.115.115-.115.23a2.512,2.512,0,0,1-.344.574,25.71,25.71,0,0,1-11.251,12.284c-11.366,6.2-27.094,4.363-38,1.722a102.111,102.111,0,0,1-12.514-3.789c-.23-.115-.459-.115-.689-.23-23.42-7.118-15.384,15.5-53.155,19.861a72.416,72.416,0,0,1-10.1.344h0c-19.287-.8-42.134-8.955-59.814-16.647-9.873-4.363-18.254-8.5-23.306-11.251a27.984,27.984,0,0,1-11.94-11.71c-10.218-18.828-2.755-43.167,3.559-57.4a31.657,31.657,0,0,0-1.148-27.668c-4.937-9.3-13.777-19.747-22.617-30.309s-26.236-16.7-22.9-54.308c6.733-32.3,17.719-17.652,22.9-84.214C70,22.684,87.755,10.243,94.085,6.173c36.806-21.25,79.13,9.4,117.84,9.4,26.547,0,55.34-17.851,86.672-17.851,48.5,0,86.773,30.656,90.486,54.276,6.778,43.112-4.878,60.289-3.264,87.909C386.152,145.609,399.575,220.573,366.646,246.431Z" transform="translate(-12.025 138.277)" fill="#f5e5e5"/>
    <g id="Group_1073" data-name="Group 1073" transform="translate(17 9.033)">
      <g id="Group_1066" data-name="Group 1066" transform="translate(96.833 209.521)">
        <path id="Icon_simple-wechat" data-name="Icon simple-wechat" d="M124.225,14.388C101.465,1.58,73.122-.345,48.637,8.5,32.545,14.3,17.986,25.061,8.991,39.7.827,52.93-2.229,69.423,1.7,84.557c3.95,16.785,15.608,30.861,29.757,40.257-2.737,7.754-5.337,15.5-7.8,23.308,8.894-4.652,17.789-9.515,26.692-14.24a99.084,99.084,0,0,0,33.388,4.725,56.183,56.183,0,0,1-2.326-26.92C83.466,99.18,90.308,87.741,99.6,79.266c15.745-14.733,38.049-20.945,59.259-19.44C154.885,40.35,141.2,23.893,123.979,14.4h.246Z" transform="translate(-17.304 24.118)" fill="#a92428"/>
        <path id="Icon_simple-wechat-2" data-name="Icon simple-wechat" d="M205.341,94c-5.556-12.589-16.037-22.587-28.206-28.745a77.645,77.645,0,0,0-69.595.274c-14.879,7.635-27.3,21.319-30.824,37.967-2.9,12.26-.3,25.461,6.2,36.134,9.679,16.074,27.176,26.336,45.347,29.629,13.164,2.673,26.783,1.086,39.573-2.6,7.681,2.974,14.523,7.79,21.967,11.366-1.925-6.449-3.977-12.826-6.167-19.175,8.356-5.93,15.928-13.328,20.471-22.614A49.037,49.037,0,0,0,205.341,94Zm-30.98,5.61c-2.335,5.346,3.156-5.857,0,.009Z" transform="translate(-7.889 30.86)" fill="#456079"/>
      </g>
      <g id="Group_776" data-name="Group 776" transform="matrix(0.788, -0.616, 0.616, 0.788, 50.417, 225.451)">
        <circle id="Ellipse_19" data-name="Ellipse 19" cx="20.74" cy="20.74" r="20.74" fill="#244461"/>
        <path id="Path_97" data-name="Path 97" d="M4.264,18.828c0-7.22,3.928-6.5,6.217-9.7,2.09-3-.617-6.164-7.314-3.511C-.093,6.906-3.635,0,8.119,0c8.745,0,11.827,8.191,3.939,13.823C5.173,18.859,14.21,18.828,4.264,18.828Zm-.606,6.447c0-4.357,6.6-4.336,6.6,0s-6.655,4.357-6.655,0Z" transform="translate(13.456 6.875)" fill="#fff"/>
      </g>
      <g id="Group_1079" data-name="Group 1079" transform="matrix(0.974, -0.225, 0.225, 0.974, 292.192, 189.595)">
        <circle id="Ellipse_19-2" data-name="Ellipse 19" cx="13.641" cy="13.641" r="13.641" fill="#244461"/>
        <path id="Path_97-2" data-name="Path 97" d="M2.8,12.383c0-4.749,2.584-4.274,4.089-6.377C8.268,4.034,6.488,1.952,2.083,3.7-.061,4.542-2.391,0,5.34,0c5.752,0,7.779,5.388,2.591,9.092C3.4,12.4,9.346,12.383,2.8,12.383Zm-.4,4.24a2.172,2.172,0,0,1,4.343,0c0,2.852-4.377,2.866-4.377,0Z" transform="translate(8.85 4.522)" fill="#fff"/>
      </g>
      <g id="Group_1069" data-name="Group 1069" transform="translate(219.405 195.804) rotate(22)">
        <path id="Path_3549" data-name="Path 3549" d="M23.929,0A23.93,23.93,0,0,1,38.507,42.905a23.448,23.448,0,0,1-14.579,4.952A23.929,23.929,0,0,1,23.929,0Z" transform="matrix(0.616, 0.788, -0.788, 0.616, 28.229, -9.484)" fill="#f7b566"/>
        <g id="Group_1071" data-name="Group 1071" transform="translate(21.293 0.243) rotate(40)">
          <path id="Icon_awesome-dollar-sign" data-name="Icon awesome-dollar-sign" d="M11.954,13.339,5.781,11.533a1.686,1.686,0,0,1,.474-3.3h3.789A3.488,3.488,0,0,1,12,8.83a.891.891,0,0,0,1.114-.114L15.1,6.772a.926.926,0,0,0-.1-1.4,8.081,8.081,0,0,0-4.943-1.714V.914A.917.917,0,0,0,9.142,0H7.313A.917.917,0,0,0,6.4.914V3.658H6.256A6.262,6.262,0,0,0,.026,10.493a6.542,6.542,0,0,0,4.789,5.521l5.858,1.714a1.686,1.686,0,0,1-.474,3.3H6.41a3.488,3.488,0,0,1-1.955-.6.891.891,0,0,0-1.114.114L1.352,22.488a.926.926,0,0,0,.1,1.4A8.081,8.081,0,0,0,6.4,25.6v2.743a.917.917,0,0,0,.914.914H9.142a.917.917,0,0,0,.914-.914V25.592A6.456,6.456,0,0,0,16.1,21.437a6.276,6.276,0,0,0-4.143-8.1Z" transform="matrix(0.695, -0.719, 0.719, 0.695, 0, 11.837)" fill="#ffde6f"/>
        </g>
      </g>
      <g id="Group_1080" data-name="Group 1080" transform="translate(256.24 262.22) rotate(22)">
        <g id="Group_1071-2" data-name="Group 1071" transform="translate(15.302 0.243) rotate(40)">
          <path id="Icon_awesome-dollar-sign-2" data-name="Icon awesome-dollar-sign" d="M8.49,9.473,4.106,8.191a1.2,1.2,0,0,1,.337-2.346H7.134a2.477,2.477,0,0,1,1.388.426.633.633,0,0,0,.791-.081l1.412-1.38a.658.658,0,0,0-.073-.994A5.739,5.739,0,0,0,7.142,2.6V.649A.651.651,0,0,0,6.493,0h-1.3a.651.651,0,0,0-.649.649V2.6h-.1A4.447,4.447,0,0,0,.019,7.452a4.646,4.646,0,0,0,3.4,3.921L7.58,12.59a1.2,1.2,0,0,1-.337,2.346H4.553a2.477,2.477,0,0,1-1.388-.426.633.633,0,0,0-.791.081L.96,15.971a.658.658,0,0,0,.073.994,5.739,5.739,0,0,0,3.511,1.218v1.948a.651.651,0,0,0,.649.649h1.3a.651.651,0,0,0,.649-.649V18.175a4.585,4.585,0,0,0,4.29-2.951A4.457,4.457,0,0,0,8.49,9.473Z" transform="matrix(0.695, -0.719, 0.719, 0.695, 0, 8.407)" fill="#244461"/>
        </g>
      </g>
      <g id="Group_1078" data-name="Group 1078" transform="matrix(0.946, 0.326, -0.326, 0.946, 132.789, 396.556)">
        <path id="Path_3549-2" data-name="Path 3549" d="M14.784,0a14.785,14.785,0,0,1,9.007,26.509,14.487,14.487,0,0,1-9.007,3.06A14.784,14.784,0,0,1,14.784,0Z" transform="matrix(0.616, 0.788, -0.788, 0.616, 13.817, -9.484)" fill="#d48d2a"/>
        <g id="Group_1071-3" data-name="Group 1071" transform="translate(9.532 -3.474) rotate(40)">
          <path id="Icon_awesome-dollar-sign-3" data-name="Icon awesome-dollar-sign" d="M7.385,8.241,3.572,7.125a1.041,1.041,0,0,1,.293-2.041H6.206a2.155,2.155,0,0,1,1.208.371A.55.55,0,0,0,8.1,5.385l1.229-1.2a.572.572,0,0,0-.064-.865A4.993,4.993,0,0,0,6.213,2.26V.565A.567.567,0,0,0,5.648,0H4.518a.567.567,0,0,0-.565.565V2.26H3.865A3.869,3.869,0,0,0,.016,6.483,4.042,4.042,0,0,0,2.975,9.894l3.619,1.059A1.041,1.041,0,0,1,6.3,12.994H3.96a2.155,2.155,0,0,1-1.208-.371.55.55,0,0,0-.689.071l-1.229,1.2a.572.572,0,0,0,.064.865,4.993,4.993,0,0,0,3.054,1.059v1.695a.567.567,0,0,0,.565.565h1.13a.567.567,0,0,0,.565-.565v-1.7a3.989,3.989,0,0,0,3.732-2.567,3.877,3.877,0,0,0-2.56-5Z" transform="matrix(0.695, -0.719, 0.719, 0.695, 0, 7.314)" fill="#a96720"/>
        </g>
      </g>
      <path id="Path_3548" data-name="Path 3548" d="M6.153,27.173c0-10.42,5.67-9.379,8.972-13.994,3.016-4.328-.89-8.9-10.555-5.067C-.134,9.967-5.246,0,11.718,0,24.339,0,28.787,11.822,17.4,19.95,7.466,27.218,20.509,27.173,6.153,27.173Zm-.875,9.3c0-6.288,9.53-6.258,9.53,0s-9.605,6.288-9.605,0Z" transform="matrix(0.985, 0.174, -0.174, 0.985, 157.933, 174.967)" fill="#a92428"/>
      <path id="Path_3639" data-name="Path 3639" d="M5.116,22.593c0-8.663,4.714-7.8,7.46-11.635,2.507-3.6-.74-7.4-8.776-4.213C-.112,8.287-4.362,0,9.743,0c10.494,0,14.193,9.829,4.727,16.587C6.207,22.63,17.052,22.593,5.116,22.593Zm-.727,7.736c0-5.228,7.924-5.2,7.924,0s-7.986,5.228-7.986,0Z" transform="translate(321.902 329.951) rotate(45)" fill="#a92428"/>
    </g>
  </g>
</svg>
