<svg xmlns="http://www.w3.org/2000/svg" width="346.391" height="342.892" viewBox="0 0 346.391 342.892">
  <g id="Group_1072" data-name="Group 1072" transform="translate(-45.242 11.227)">
    <path id="Path_84" data-name="Path 84" d="M366.646,246.431C346,267.081,322.79,280.3,309.588,309.574c0,.115-.115.115-.115.23a2.512,2.512,0,0,1-.344.574,25.71,25.71,0,0,1-11.251,12.284c-11.366,6.2-27.094,4.363-38,1.722a102.111,102.111,0,0,1-12.514-3.789c-.23-.115-.459-.115-.689-.23-23.42-7.118-15.384,15.5-53.155,19.861a72.416,72.416,0,0,1-10.1.344h0c-19.287-.8-42.134-8.955-59.814-16.647-9.873-4.363-18.254-8.5-23.306-11.251a27.984,27.984,0,0,1-11.94-11.71c-10.218-18.828-2.755-43.167,3.559-57.4a31.657,31.657,0,0,0-1.148-27.668c-4.937-9.3-13.777-19.747-22.617-30.309s-26.236-16.7-22.9-54.308c6.733-32.3,17.719-17.652,22.9-84.214C70,22.684,87.755,10.243,94.085,6.173c36.806-21.25,79.13,9.4,117.84,9.4,26.547,0,55.34-17.851,86.672-17.851,48.5,0,86.773,30.656,90.486,54.276,6.778,43.112-4.878,60.289-3.264,87.909C386.152,145.609,399.575,220.573,366.646,246.431Z" transform="translate(0.413 -8.951)" fill="#f5e5e5"/>
    <g id="Capa_1" data-name="Capa 1" transform="translate(122.631 9.47)">
      <path id="Path_3551" data-name="Path 3551" d="M963.333,514.878c.982,2.786-.14,13.828-12.12,23.561-9.482,7.7-30.343,17.7-40.823,27.782-8.432,8.109-15.425,22.463-17.022,21.026s-36.768-32.973-37.114-35.882,4.363-14.466,13.861-24.449c10.926-11.485,35.989-24.784,44.116-31.948,9.94-8.762,9.48-16.192,11.987-15.972S962.352,512.093,963.333,514.878Z" transform="translate(-776.997 -433.395)" fill="#a1f29d"/>
      <path id="Path_3552" data-name="Path 3552" d="M977.359,543.616c3.645,3.727,6.25,6.585,6.474,7.3.432,1.355-.07,4.846-2.417,9.228a41.306,41.306,0,0,1-10.249,12.108c-8.779,7.232-27.887,16.9-37.633,26.314a84.876,84.876,0,0,0-9.838,12.25c-3.131,4.492-5.387,7.922-6.133,7.256-.41-.363-3.414-3.059-7.48-6.756-5.618-5.124-13.266-12.176-18.863-17.651-4.275-4.187-7.352-7.455-7.421-8.266-.111-1.254.877-4.168,2.9-7.885a67.541,67.541,0,0,1,10.269-13.915c10.194-10.7,34.591-22.831,42.133-29.544a44.387,44.387,0,0,0,5.251-5.51c4.281-5.4,4.925-9.1,6.642-9,.629.034,3.355,2.264,7,5.52C963.759,530.2,971.784,537.921,977.359,543.616Z" transform="translate(-801.13 -468.902)" fill="none" stroke="#449441" stroke-miterlimit="10" stroke-width="6.38"/>
      <path id="Path_3553" data-name="Path 3553" d="M893.1,988.441a8.585,8.585,0,0,1,.205,12.137,8.483,8.483,0,0,1-2.125,1.605c-4.275-4.187-7.352-7.455-7.421-8.266-.111-1.254.877-4.168,2.9-7.885A8.589,8.589,0,0,1,893.1,988.441Z" transform="translate(-801.095 -877.429)" fill="#005741"/>
      <path id="Path_3554" data-name="Path 3554" d="M1108.357,1231.527a7.628,7.628,0,0,1,.645.7c-3.131,4.492-5.387,7.922-6.133,7.256-.41-.363-3.414-3.059-7.479-6.756a7.639,7.639,0,0,1,.819-.994A8.593,8.593,0,0,1,1108.357,1231.527Z" transform="translate(-986.437 -1090.318)" fill="#005741"/>
      <path id="Path_3555" data-name="Path 3555" d="M1384.851,525.01a8.59,8.59,0,0,1-13.641,3.479c4.281-5.4,4.925-9.1,6.642-9C1378.486,519.524,1381.214,521.753,1384.851,525.01Z" transform="translate(-1227.988 -468.858)" fill="#005741"/>
      <path id="Path_3556" data-name="Path 3556" d="M1598.744,713.341c3.646,3.727,6.25,6.585,6.474,7.3.432,1.356-.07,4.846-2.417,9.228a8.59,8.59,0,0,1-4.058-16.525Z" transform="translate(-1422.516 -638.627)" fill="#449441"/>
      <path id="Path_3557" data-name="Path 3557" d="M1136.916,731.34c10.515,11.635,8.636,22.24-1.06,29.545-9.026,6.8-20.416,3.045-29.782-6.01-11.673-11.285-10.372-22.956-.745-28.943C1115.361,719.69,1123.172,716.134,1136.916,731.34Z" transform="translate(-988.471 -644.966)" fill="#005741"/>
      <path id="Path_3558" data-name="Path 3558" d="M1181.515,788.49c-5.044-1.844-9.809.248-10.371,5.7-.471,4.571,3.736,8.006,7.383,8.225,4.672.28,8.076-1.769,12.575-2.174,5.736-.518,11.04,6.54,7.7,11.766-2.609,4.075-7.681,5.89-13.783,1.367" transform="translate(-1052.748 -703.866)" fill="none" stroke="#00a079" stroke-linecap="round" stroke-miterlimit="10" stroke-width="12.76"/>
      <line id="Line_8" data-name="Line 8" x1="28.287" y1="27.346" transform="translate(118.529 84.024)" fill="none" stroke="#00a079" stroke-linecap="round" stroke-miterlimit="10" stroke-width="12.76"/>
      <path id="Path_3560" data-name="Path 3560" d="M921.481,360.054c1.942,2.225,4.981,12.9-2.555,26.372-5.964,10.661-21.652,27.663-27.664,40.9-4.837,10.653-6.03,26.575-8.044,25.829s-46.351-17.049-47.75-19.623-1.291-15.055,3.844-27.841c5.908-14.711,24.28-36.332,29.184-45.992,6-11.817,2.824-18.549,5.234-19.27S919.539,357.827,921.481,360.054Z" transform="translate(-758.139 -312.032)" fill="#a1f29d"/>
      <path id="Path_3561" data-name="Path 3561" d="M929.849,388.748c4.762,2.112,8.24,3.806,8.712,4.386.9,1.1,1.728,4.531,1.165,9.467a41.229,41.229,0,0,1-5.049,15.034c-5.484,9.966-19.668,26.006-25.242,38.359a84.916,84.916,0,0,0-4.613,15.02c-1.242,5.331-2.079,9.352-3.017,9.009-.516-.185-4.3-1.579-9.443-3.514-7.114-2.684-16.826-6.41-24.051-9.43-5.52-2.311-9.588-4.214-9.951-4.937-.567-1.118-.726-4.2-.215-8.4a67.6,67.6,0,0,1,4.4-16.727c5.516-13.714,23.706-34,28.228-43.02a44.366,44.366,0,0,0,2.844-7.066c1.988-6.6,1.214-10.273,2.844-10.819.6-.2,3.956.863,8.544,2.543C912.253,381.306,922.565,385.509,929.849,388.748Z" transform="translate(-778.399 -343.275)" fill="none" stroke="#449441" stroke-miterlimit="10" stroke-width="6.38"/>
      <path id="Path_3562" data-name="Path 3562" d="M864.966,995.43a8.585,8.585,0,0,1,4.677,11.2,8.464,8.464,0,0,1-1.382,2.276c-5.52-2.311-9.588-4.214-9.951-4.937-.567-1.118-.726-4.2-.215-8.4A8.586,8.586,0,0,1,864.966,995.43Z" transform="translate(-778.355 -885.101)" fill="#005741"/>
      <path id="Path_3563" data-name="Path 3563" d="M1147.321,1132.245a8.093,8.093,0,0,1,.859.412c-1.242,5.331-2.078,9.352-3.017,9.009-.516-.185-4.3-1.579-9.443-3.514a7.608,7.608,0,0,1,.393-1.226A8.594,8.594,0,0,1,1147.321,1132.245Z" transform="translate(-1021.756 -1004.921)" fill="#005741"/>
      <path id="Path_3564" data-name="Path 3564" d="M1157.148,378.63a8.59,8.59,0,0,1-11.388,8.277c1.988-6.6,1.214-10.273,2.844-10.819C1149.2,375.887,1152.56,376.951,1157.148,378.63Z" transform="translate(-1030.549 -343.256)" fill="#449441"/>
      <path id="Path_3565" data-name="Path 3565" d="M1418.538,478c4.762,2.112,8.24,3.806,8.712,4.386.9,1.1,1.728,4.531,1.165,9.467A8.59,8.59,0,0,1,1418.538,478Z" transform="translate(-1267.088 -432.527)" fill="#449441"/>
      <path id="Path_3566" data-name="Path 3566" d="M1019.554,616.708c14.071,6.925,16.244,17.47,9.94,27.845-5.872,9.658-17.845,10.376-29.893,5.423-15.022-6.17-18.127-17.495-11.4-26.615C995.221,613.849,1001.163,607.662,1019.554,616.708Z" transform="translate(-889.612 -550.137)" fill="#449441"/>
      <path id="Path_3567" data-name="Path 3567" d="M1056.559,693.25c-5.369.15-9.023,3.852-7.529,9.13,1.251,4.421,6.43,6.058,9.9,4.913,4.444-1.466,6.851-4.628,10.881-6.668,5.139-2.6,12.673,2,11.5,8.087-.914,4.75-4.96,8.312-12.3,6.366" transform="translate(-945.542 -621.033)" fill="none" stroke="#a1f29d" stroke-linecap="round" stroke-miterlimit="10" stroke-width="5"/>
      <line id="Line_9" data-name="Line 9" x1="36.391" y1="14.954" transform="translate(101.277 75.444)" fill="none" stroke="#a1f29d" stroke-linecap="round" stroke-miterlimit="10" stroke-width="5"/>
      <path id="Path_3569" data-name="Path 3569" d="M1230.911,1636.67v11.122c0,.737-.537,1.45-1.534,2.125a7.581,7.581,0,0,1-.767.454,22.724,22.724,0,0,1-4.6,1.718c-.249.061-.506.124-.767.2-1.389.345-2.93.667-4.6.944-.249.046-.507.092-.768.132-1.443.23-2.982.436-4.6.6l-.768.086c-1.472.146-3.015.275-4.6.373-.248.024-.507.039-.768.055-1.491.084-3.03.145-4.6.175l-.767.016c-.889.022-1.794.031-2.707.031-.636,0-1.266-.007-1.895-.016-.249,0-.513-.007-.767-.015-1.4-.016-2.784-.062-4.127-.124-.261-.015-.513-.031-.767-.038-1.589-.084-3.122-.2-4.6-.329-.261-.022-.513-.046-.768-.077-1.615-.153-3.145-.329-4.6-.545-.261-.03-.514-.068-.768-.114-1.657-.248-3.2-.529-4.6-.844-.261-.061-.522-.124-.767-.183a31.529,31.529,0,0,1-4.6-1.428l-.768-.353a3.491,3.491,0,0,1-2.047-3.42v-10.541Z" transform="translate(-1050.043 -1447.238)" fill="#f7b566"/>
      <path id="Path_3570" data-name="Path 3570" d="M1230.552,1587.689c0,3.838-14.089,6.949-31.471,6.949s-31.471-3.106-31.471-6.949,14.091-6.949,31.471-6.949S1230.552,1583.85,1230.552,1587.689Z" transform="translate(-1049.684 -1398.257)" fill="#ffde6f"/>
      <path id="Path_3571" data-name="Path 3571" d="M1274.646,1597.989c0,2.377-10.827,4.3-24.183,4.3s-24.183-1.925-24.183-4.3,10.827-4.3,24.183-4.3S1274.646,1595.616,1274.646,1597.989Z" transform="translate(-1101.065 -1409.598)" fill="#f7b566"/>
      <path id="Path_3572" data-name="Path 3572" d="M1227.239,1599.188c2.92-1.792,12.208-3.106,23.224-3.106s20.305,1.311,23.224,3.106c.621-.38.959-.783.959-1.2,0-2.373-10.827-4.3-24.183-4.3s-24.183,1.926-24.183,4.3C1226.28,1598.406,1226.618,1598.809,1227.239,1599.188Z" transform="translate(-1101.065 -1409.598)" fill="#e2995b"/>
      <path id="Path_3573" data-name="Path 3573" d="M1397.137,1698.41v10.341c-.249,0-.513-.007-.767-.015V1698.41Z" transform="translate(-1250.022 -1501.307)" fill="#e2995b"/>
      <path id="Path_3574" data-name="Path 3574" d="M1219.45,1570.846V1560.52h.766v10.31Z" transform="translate(-1067.732 -1363.417)" fill="#e2995b"/>
      <path id="Path_3575" data-name="Path 3575" d="M1483.588,1698.41v10.08c-.249.024-.507.039-.768.055V1698.41Z" transform="translate(-1325.731 -1501.307)" fill="#e2995b"/>
      <path id="Path_3576" data-name="Path 3576" d="M1305.89,1570.232v-9.712h.767v9.626Z" transform="translate(-1143.432 -1363.417)" fill="#e2995b"/>
      <path id="Path_3577" data-name="Path 3577" d="M1570.018,1689.89v9.953c-.249.046-.507.092-.768.132v-10.081Z" transform="translate(-1401.423 -1493.846)" fill="#e2995b"/>
      <path id="Path_3578" data-name="Path 3578" d="M1613.237,1680.63v9.958c-.249.061-.506.124-.767.2V1680.63Z" transform="translate(-1439.273 -1485.736)" fill="#e2995b"/>
      <path id="Path_3579" data-name="Path 3579" d="M1656.456,1666.8v9.5a7.579,7.579,0,0,1-.766.454V1666.8Z" transform="translate(-1477.123 -1473.625)" fill="#e2995b"/>
      <path id="Path_3580" data-name="Path 3580" d="M1357.746,1698.41v10.2c-.261-.015-.513-.031-.766-.038V1698.41Z" transform="translate(-1215.526 -1501.307)" fill="#e2995b"/>
      <path id="Path_3581" data-name="Path 3581" d="M1314.518,1698.41v9.835c-.261-.022-.513-.046-.768-.077v-9.758Z" transform="translate(-1177.667 -1501.307)" fill="#e2995b"/>
      <path id="Path_3582" data-name="Path 3582" d="M1271.3,1698.41v9.213c-.261-.03-.514-.068-.768-.114v-9.1Z" transform="translate(-1139.817 -1501.307)" fill="#e2995b"/>
      <path id="Path_3583" data-name="Path 3583" d="M1228.086,1689.89v9.318c-.261-.061-.522-.124-.766-.183v-9.13Z" transform="translate(-1101.976 -1493.846)" fill="#e2995b"/>
      <path id="Path_3584" data-name="Path 3584" d="M963.96,1542.472v-9.742h.767v10.095Z" transform="translate(-843.986 -1339.08)" fill="#e2995b"/>
      <path id="Path_3585" data-name="Path 3585" d="M1274.956,1517.81v11.124c0,.735-.537,1.449-1.534,2.125a7.488,7.488,0,0,1-.767.452,22.642,22.642,0,0,1-4.6,1.72c-.249.062-.507.124-.768.2-1.388.345-2.93.667-4.6.943-.249.046-.507.092-.768.13-1.442.231-2.982.437-4.6.606l-.767.086c-1.474.145-3.015.276-4.6.373-.249.024-.507.038-.767.055-1.491.085-3.031.145-4.6.177l-.766.016c-.89.022-1.8.031-2.707.031-.636,0-1.266-.008-1.895-.016-.248,0-.513-.006-.767-.015-1.4-.016-2.784-.062-4.127-.124-.261-.015-.514-.031-.768-.038-1.588-.085-3.122-.2-4.6-.329-.261-.022-.513-.046-.768-.077-1.615-.153-3.145-.329-4.6-.545-.261-.03-.513-.068-.767-.114-1.657-.249-3.2-.529-4.6-.842l-.767-.184a31.568,31.568,0,0,1-4.6-1.427l-.768-.353a3.489,3.489,0,0,1-2.048-3.42v-10.541Z" transform="translate(-1088.611 -1343.146)" fill="#f7b566"/>
      <ellipse id="Ellipse_99" data-name="Ellipse 99" cx="31.47" cy="6.949" rx="31.47" ry="6.949" transform="translate(123.404 167.715)" fill="#ffde6f"/>
      <ellipse id="Ellipse_100" data-name="Ellipse 100" cx="24.183" cy="4.3" rx="24.183" ry="4.3" transform="translate(130.691 169.324)" fill="#f7b566"/>
      <path id="Path_3586" data-name="Path 3586" d="M1271.328,1480.338c2.92-1.792,12.208-3.106,23.224-3.106s20.305,1.311,23.224,3.106c.621-.38.959-.783.959-1.2,0-2.374-10.827-4.3-24.183-4.3s-24.182,1.926-24.182,4.3C1270.369,1479.555,1270.707,1479.954,1271.328,1480.338Z" transform="translate(-1139.677 -1305.514)" fill="#e2995b"/>
      <path id="Path_3587" data-name="Path 3587" d="M1441.217,1579.56V1589.9c-.248,0-.513-.006-.767-.015V1579.56Z" transform="translate(-1288.625 -1397.224)" fill="#e2995b"/>
      <path id="Path_3588" data-name="Path 3588" d="M1263.53,1451.986V1441.66h.767v10.31Z" transform="translate(-1106.336 -1259.325)" fill="#e2995b"/>
      <path id="Path_3589" data-name="Path 3589" d="M1527.656,1579.56v10.08c-.249.024-.507.039-.767.055V1579.56Z" transform="translate(-1364.326 -1397.224)" fill="#e2995b"/>
      <path id="Path_3590" data-name="Path 3590" d="M1349.97,1451.374v-9.714h.766v9.628Z" transform="translate(-1182.036 -1259.325)" fill="#e2995b"/>
      <path id="Path_3591" data-name="Path 3591" d="M1614.088,1571v9.95c-.248.046-.507.092-.768.13V1571Z" transform="translate(-1440.017 -1389.727)" fill="#e2995b"/>
      <path id="Path_3592" data-name="Path 3592" d="M1657.308,1561.78v9.958c-.249.062-.507.124-.768.2V1561.78Z" transform="translate(-1477.867 -1381.653)" fill="#e2995b"/>
      <path id="Path_3593" data-name="Path 3593" d="M1700.536,1547.94v9.5a7.475,7.475,0,0,1-.767.452v-9.957Z" transform="translate(-1515.726 -1369.532)" fill="#e2995b"/>
      <path id="Path_3594" data-name="Path 3594" d="M1401.818,1579.56v10.2c-.261-.015-.514-.031-.768-.039V1579.56Z" transform="translate(-1254.121 -1397.224)" fill="#e2995b"/>
      <path id="Path_3595" data-name="Path 3595" d="M1358.588,1579.56v9.835c-.261-.022-.513-.046-.768-.077v-9.758Z" transform="translate(-1216.262 -1397.224)" fill="#e2995b"/>
      <path id="Path_3596" data-name="Path 3596" d="M1315.387,1579.56v9.213c-.261-.03-.513-.068-.767-.114v-9.1Z" transform="translate(-1178.429 -1397.224)" fill="#e2995b"/>
      <path id="Path_3597" data-name="Path 3597" d="M1272.167,1571v9.318l-.767-.184V1571Z" transform="translate(-1140.579 -1389.727)" fill="#e2995b"/>
      <path id="Path_3598" data-name="Path 3598" d="M1008.04,1423.622v-9.742h.767v10.095Z" transform="translate(-882.589 -1234.996)" fill="#e2995b"/>
      <path id="Path_3599" data-name="Path 3599" d="M1227.551,1395.36v11.122c0,.737-.537,1.45-1.534,2.126a8.1,8.1,0,0,1-.768.452,22.649,22.649,0,0,1-4.6,1.718c-.249.061-.507.13-.768.2-1.388.345-2.93.668-4.6.944-.248.046-.506.092-.767.124-1.442.232-2.982.439-4.6.608l-.767.086c-1.474.146-3.014.275-4.6.373-.248.024-.507.039-.766.053q-2.244.124-4.6.177l-.766.016c-.891.022-1.8.03-2.707.03-.636,0-1.266-.006-1.895-.015-.249,0-.514-.007-.767-.015-1.4-.016-2.786-.063-4.127-.124-.261-.015-.513-.031-.768-.038-1.588-.085-3.122-.2-4.6-.329-.261-.024-.513-.047-.768-.077-1.615-.154-3.145-.33-4.6-.545-.261-.031-.513-.068-.767-.114-1.657-.248-3.2-.529-4.6-.844l-.768-.184a31.5,31.5,0,0,1-4.6-1.426l-.768-.354a3.489,3.489,0,0,1-2.048-3.421V1395.36Z" transform="translate(-1047.1 -1235.909)" fill="#f7b566"/>
      <path id="Path_3600" data-name="Path 3600" d="M1227.2,1346.379c0,3.838-14.089,6.949-31.471,6.949s-31.47-3.106-31.47-6.949,14.089-6.949,31.47-6.949S1227.2,1342.541,1227.2,1346.379Z" transform="translate(-1046.75 -1186.928)" fill="#ffde6f"/>
      <path id="Path_3601" data-name="Path 3601" d="M1271.285,1356.69c0,2.375-10.827,4.3-24.183,4.3s-24.182-1.925-24.182-4.3,10.827-4.3,24.182-4.3S1271.285,1354.313,1271.285,1356.69Z" transform="translate(-1098.122 -1198.278)" fill="#f7b566"/>
      <path id="Path_3602" data-name="Path 3602" d="M1223.878,1357.888c2.92-1.792,12.208-3.106,23.224-3.106s20.305,1.311,23.224,3.106c.621-.38.959-.783.959-1.2,0-2.376-10.827-4.3-24.183-4.3s-24.182,1.925-24.182,4.3C1222.92,1357.105,1223.258,1357.508,1223.878,1357.888Z" transform="translate(-1098.122 -1198.278)" fill="#e2995b"/>
      <path id="Path_3603" data-name="Path 3603" d="M1393.777,1457.11v10.341c-.248,0-.514-.007-.767-.015V1457.11Z" transform="translate(-1247.08 -1289.987)" fill="#e2995b"/>
      <path id="Path_3604" data-name="Path 3604" d="M1216.09,1329.536V1319.21h.767v10.31Z" transform="translate(-1064.79 -1152.089)" fill="#e2995b"/>
      <path id="Path_3605" data-name="Path 3605" d="M1480.217,1457.11v10.08c-.249.024-.507.039-.767.053V1457.11Z" transform="translate(-1322.78 -1289.987)" fill="#e2995b"/>
      <path id="Path_3606" data-name="Path 3606" d="M1302.52,1328.922v-9.712h.768v9.628Z" transform="translate(-1140.481 -1152.089)" fill="#e2995b"/>
      <path id="Path_3607" data-name="Path 3607" d="M1566.656,1448.555v9.949c-.248.046-.506.092-.766.124V1448.55Z" transform="translate(-1398.48 -1282.491)" fill="#e2995b"/>
      <path id="Path_3608" data-name="Path 3608" d="M1609.868,1439.33v9.957c-.249.061-.507.13-.768.2V1439.33Z" transform="translate(-1436.322 -1274.417)" fill="#e2995b"/>
      <path id="Path_3609" data-name="Path 3609" d="M1653.088,1425.49V1435a8.029,8.029,0,0,1-.768.452v-9.957Z" transform="translate(-1474.171 -1262.296)" fill="#e2995b"/>
      <path id="Path_3610" data-name="Path 3610" d="M1354.378,1457.11v10.2c-.261-.015-.513-.031-.768-.038V1457.11Z" transform="translate(-1212.575 -1289.987)" fill="#e2995b"/>
      <path id="Path_3611" data-name="Path 3611" d="M1311.158,1457.11v9.835c-.261-.024-.513-.047-.768-.077v-9.758Z" transform="translate(-1174.725 -1289.987)" fill="#e2995b"/>
      <path id="Path_3612" data-name="Path 3612" d="M1267.947,1457.11v9.213c-.261-.031-.513-.068-.767-.114v-9.1Z" transform="translate(-1136.883 -1289.987)" fill="#e2995b"/>
      <path id="Path_3613" data-name="Path 3613" d="M1224.718,1448.59v9.318l-.768-.184V1448.6Z" transform="translate(-1099.024 -1282.526)" fill="#e2995b"/>
      <path id="Path_3614" data-name="Path 3614" d="M960.59,1301.163v-9.743h.768v10.1Z" transform="translate(-841.034 -1127.751)" fill="#e2995b"/>
      <path id="Path_3615" data-name="Path 3615" d="M1271.64,1276.484V1287.6c0,.737-.538,1.45-1.534,2.126a8.138,8.138,0,0,1-.766.453,22.651,22.651,0,0,1-4.6,1.717c-.248.062-.507.132-.768.2-1.389.344-2.931.667-4.6.943-.249.045-.507.092-.767.124-1.442.232-2.982.439-4.6.608l-.767.084c-1.472.145-3.015.277-4.6.373-.249.024-.507.039-.768.053q-2.244.124-4.6.176l-.767.016c-.89.022-1.794.031-2.708.031-.636,0-1.266-.009-1.895-.016-.249,0-.513-.007-.768-.015-1.4-.016-2.784-.063-4.127-.124-.261-.015-.513-.031-.767-.039-1.588-.084-3.122-.2-4.6-.329-.261-.024-.514-.046-.767-.077-1.615-.153-3.145-.329-4.6-.546-.261-.031-.514-.068-.768-.114-1.657-.249-3.2-.529-4.6-.844-.26-.061-.522-.124-.766-.184a31.455,31.455,0,0,1-4.6-1.426l-.768-.353a3.49,3.49,0,0,1-2.046-3.421V1276.48Z" transform="translate(-1085.712 -1131.8)" fill="#f7b566"/>
      <ellipse id="Ellipse_101" data-name="Ellipse 101" cx="31.47" cy="6.949" rx="31.47" ry="6.949" transform="translate(122.986 137.734)" fill="#ffde6f"/>
      <path id="Path_3616" data-name="Path 3616" d="M1315.365,1237.83c0,2.374-10.825,4.3-24.183,4.3S1267,1240.2,1267,1237.83s10.827-4.3,24.183-4.3S1315.365,1235.452,1315.365,1237.83Z" transform="translate(-1136.726 -1094.186)" fill="#f7b566"/>
      <path id="Path_3617" data-name="Path 3617" d="M1267.958,1239.038c2.919-1.792,12.207-3.106,23.224-3.106s20.3,1.311,23.224,3.106c.621-.38.959-.783.959-1.2,0-2.376-10.825-4.3-24.183-4.3s-24.182,1.921-24.182,4.3C1267,1238.255,1267.338,1238.656,1267.958,1239.038Z" transform="translate(-1136.726 -1094.195)" fill="#e2995b"/>
      <path id="Path_3618" data-name="Path 3618" d="M1437.848,1338.25v10.341c-.249,0-.513-.007-.768-.015V1338.25Z" transform="translate(-1285.674 -1185.895)" fill="#e2995b"/>
      <path id="Path_3619" data-name="Path 3619" d="M1260.16,1210.686V1200.36h.768v10.31Z" transform="translate(-1103.384 -1048.005)" fill="#e2995b"/>
      <path id="Path_3620" data-name="Path 3620" d="M1524.288,1338.25v10.08c-.248.024-.507.039-.768.054V1338.25Z" transform="translate(-1361.374 -1185.895)" fill="#e2995b"/>
      <path id="Path_3621" data-name="Path 3621" d="M1346.6,1210.071v-9.711h.768v9.626Z" transform="translate(-1179.085 -1048.005)" fill="#e2995b"/>
      <path id="Path_3622" data-name="Path 3622" d="M1610.736,1329.695v9.95c-.249.045-.507.092-.767.124V1329.69Z" transform="translate(-1437.083 -1178.399)" fill="#e2995b"/>
      <path id="Path_3623" data-name="Path 3623" d="M1653.948,1320.47v9.957c-.249.062-.507.132-.768.2V1320.47Z" transform="translate(-1474.925 -1170.324)" fill="#e2995b"/>
      <path id="Path_3624" data-name="Path 3624" d="M1697.177,1306.64v9.5a8.155,8.155,0,0,1-.767.453v-9.958Z" transform="translate(-1512.784 -1158.213)" fill="#e2995b"/>
      <path id="Path_3625" data-name="Path 3625" d="M1398.457,1338.25v10.2c-.261-.015-.513-.031-.767-.038V1338.25Z" transform="translate(-1251.178 -1185.895)" fill="#e2995b"/>
      <path id="Path_3626" data-name="Path 3626" d="M1355.247,1338.25v9.835c-.261-.024-.514-.046-.767-.077v-9.758Z" transform="translate(-1213.337 -1185.895)" fill="#e2995b"/>
      <path id="Path_3627" data-name="Path 3627" d="M1312.018,1338.25v9.213c-.261-.031-.514-.068-.768-.114v-9.1Z" transform="translate(-1175.478 -1185.895)" fill="#e2995b"/>
      <path id="Path_3628" data-name="Path 3628" d="M1268.8,1329.73v9.318c-.26-.061-.522-.124-.767-.184v-9.128Z" transform="translate(-1137.627 -1178.434)" fill="#e2995b"/>
      <path id="Path_3629" data-name="Path 3629" d="M1004.67,1182.312v-9.742h.768v10.095Z" transform="translate(-879.638 -1023.668)" fill="#e2995b"/>
      <path id="Path_3630" data-name="Path 3630" d="M1222.283,863.462c0,11.545-19.023,28.012-19.023,28.012s-4.111.051-8.065.051c-15.5,0-27.085-12.565-27.085-28.063S1181.241,835.4,1195.2,835.4c3.288,0,7.082.012,7.082.012S1222.283,851.254,1222.283,863.462Z" transform="translate(-1050.122 -745.522)" fill="#f7b566"/>
      <circle id="Ellipse_102" data-name="Ellipse 102" cx="28.063" cy="28.063" r="28.063" transform="translate(123.422 89.877)" fill="#ffde6f"/>
      <circle id="Ellipse_103" data-name="Ellipse 103" cx="22.606" cy="22.606" r="22.606" transform="translate(128.879 95.334)" fill="#f7b566"/>
      <path id="Path_3631" data-name="Path 3631" d="M1388,928.956c-2.181-4.909-7-6.881-11.306-3.5-3.614,2.839-3.16,8.252-.781,11.028,3.047,3.553,6.887,4.578,10.312,7.532,4.361,3.765,2.973,12.487-3.106,13.717-4.742.959-9.577-1.429-10.567-8.961" transform="translate(-1229.161 -822.912)" fill="none" stroke="#ffde6f" stroke-linecap="round" stroke-miterlimit="10" stroke-width="19.14"/>
      <line id="Line_10" data-name="Line 10" y1="39.353" transform="translate(152.15 98.264)" fill="none" stroke="#ffde6f" stroke-linecap="round" stroke-miterlimit="10" stroke-width="19.14"/>
      <line id="Line_11" data-name="Line 11" y1="3.915" transform="translate(151.485 89.877)" fill="none" stroke="#f7b566" stroke-miterlimit="10" stroke-width="6.38"/>
      <line id="Line_12" data-name="Line 12" y1="3.915" transform="translate(151.485 142.088)" fill="none" stroke="#f7b566" stroke-miterlimit="10" stroke-width="6.38"/>
      <line id="Line_13" data-name="Line 13" x2="3.915" transform="translate(175.634 117.94)" fill="none" stroke="#f7b566" stroke-miterlimit="10" stroke-width="6.38"/>
      <line id="Line_14" data-name="Line 14" x2="3.915" transform="translate(123.422 117.94)" fill="none" stroke="#f7b566" stroke-miterlimit="10" stroke-width="6.38"/>
      <line id="Line_15" data-name="Line 15" y1="3.915" transform="translate(151.485 89.877)" fill="none" stroke="#f7b566" stroke-miterlimit="10" stroke-width="6.38"/>
      <line id="Line_16" data-name="Line 16" y1="3.915" transform="translate(151.485 142.088)" fill="none" stroke="#f7b566" stroke-miterlimit="10" stroke-width="6.38"/>
      <line id="Line_17" data-name="Line 17" x2="3.915" transform="translate(175.634 117.94)" fill="none" stroke="#f7b566" stroke-miterlimit="10" stroke-width="6.38"/>
      <line id="Line_18" data-name="Line 18" x2="3.915" transform="translate(123.422 117.94)" fill="none" stroke="#f7b566" stroke-miterlimit="10" stroke-width="6.38"/>
      <line id="Line_19" data-name="Line 19" y1="2.768" x2="2.768" transform="translate(168.56 98.097)" fill="none" stroke="#f7b566" stroke-miterlimit="10" stroke-width="6.38"/>
      <line id="Line_20" data-name="Line 20" y1="2.768" x2="2.768" transform="translate(131.642 135.015)" fill="none" stroke="#f7b566" stroke-miterlimit="10" stroke-width="6.38"/>
      <line id="Line_21" data-name="Line 21" x2="2.768" y2="2.768" transform="translate(168.56 135.015)" fill="none" stroke="#f7b566" stroke-miterlimit="10" stroke-width="6.38"/>
      <line id="Line_22" data-name="Line 22" x2="2.768" y2="2.768" transform="translate(131.642 98.097)" fill="none" stroke="#f7b566" stroke-miterlimit="10" stroke-width="6.38"/>
      <line id="Line_23" data-name="Line 23" y1="3.572" x2="1.603" transform="translate(161.377 92.34)" fill="none" stroke="#f7b566" stroke-miterlimit="10" stroke-width="6.38"/>
      <line id="Line_24" data-name="Line 24" y1="3.571" x2="1.603" transform="translate(139.992 139.97)" fill="none" stroke="#f7b566" stroke-miterlimit="10" stroke-width="6.38"/>
      <line id="Line_25" data-name="Line 25" x2="3.571" y2="1.604" transform="translate(173.515 127.83)" fill="none" stroke="#f7b566" stroke-miterlimit="10" stroke-width="6.38"/>
      <line id="Line_26" data-name="Line 26" x2="3.572" y2="1.603" transform="translate(125.885 106.446)" fill="none" stroke="#f7b566" stroke-miterlimit="10" stroke-width="6.38"/>
      <line id="Line_27" data-name="Line 27" y1="1.392" x2="3.659" transform="translate(174.057 107.966)" fill="none" stroke="#f7b566" stroke-miterlimit="10" stroke-width="6.38"/>
      <line id="Line_28" data-name="Line 28" y1="1.392" x2="3.659" transform="translate(125.255 126.523)" fill="none" stroke="#f7b566" stroke-miterlimit="10" stroke-width="6.38"/>
      <line id="Line_29" data-name="Line 29" x2="1.392" y2="3.658" transform="translate(160.068 140.512)" fill="none" stroke="#f7b566" stroke-miterlimit="10" stroke-width="6.38"/>
      <line id="Line_30" data-name="Line 30" x2="1.392" y2="3.659" transform="translate(141.511 91.71)" fill="none" stroke="#f7b566" stroke-miterlimit="10" stroke-width="6.38"/>
      <path id="Path_3632" data-name="Path 3632" d="M377.621,883.844c-10.9,20.252-42.989,2.492-60.547,6.231-12.5,2.655-48.9,11.576-58.768-2.33a12.858,12.858,0,0,1-1.864-3.9c-3.193-10.955,2.8-75.079,13.7-93.775a81.724,81.724,0,0,1,23.662-25.5c1.184-.81,2.393-1.583,3.6-2.306,7.39-4.423,15.2-7.089,22.579-7.089,8.685,0,8.186.773,14.155,6.155.745.673,1.608,1.433,2.592,2.255.324.275.66.548,1.023.835,8.224,6.653,25.607,18.28,29.893,27.2,9.383,19.564,12.934,43.327,13.358,62.043v.011C381.36,868.28,379.789,879.806,377.621,883.844Z" transform="translate(-250.975 -675.269)" fill="#b74448"/>
      <path id="Path_3633" data-name="Path 3633" d="M459.709,459.158c-2.031,3.452-3.278,6.979-2.879,10.617a13.313,13.313,0,0,0,1.512,4.75h-37.99a22.551,22.551,0,0,0-.248-3.813,24.914,24.914,0,0,0-4.573-10.865,39.019,39.019,0,0,0-13.17-11.182c-4.8-2.492-10.654-9.034-2.928-13.084,5.059-2.492,10.117.936,15.177,0,5.591-.934,8.785-8.723,14.38-11.526,6.655-3.427,11.714-1.864,16.773,3.739,4.8,5.607,9.318,4.985,15.439,1.864,4.536-2.181,10.654-9.658,14.118-1.864C480.263,438.286,466.107,448.33,459.709,459.158Z" transform="translate(-373.665 -383.702)" fill="#b74448"/>
      <path id="Path_3634" data-name="Path 3634" d="M562.179,484.52c-.994,2.143-2.841,4.8-2.733,7.24a4.173,4.173,0,0,0,.7,2.08c-2.031,3.452-3.278,6.979-2.879,10.617.745.673,1.608,1.433,2.592,2.255.324.275.66.548,1.023.835a6.166,6.166,0,0,0,.137,3.2c.661,2.156,2.168,4.262,2.792,6.554.487,1.769.934,6.728-1.794,4.909-1.367-.909-2.044-5.218-2.953-6.717-1.009-1.657-2.641-4.448-4.212-5.682a6.908,6.908,0,0,0-.917-.608c-1.769-.984-4.437-1.583-5.931-.249a2.331,2.331,0,0,0-.237.249c-1.633,1.931-.113,6.081-2.891,7.128-.66-2.779-.573-5.835-3.8-6.507-3.539-.736-4.9,2.281-5.84,5.059-1.457,4.249-3.178,15.751-8.112,17.632-2.654-3.028,5.745-23.749-3.788-21.98-3.414.635-4.585,6.9-5.856,9.645-1.558,3.389-3.04,7.688-5.981,10.243-3.838-2.733,3.253-12.735,4.361-15.912a17.4,17.4,0,0,0,1.083-6.816c1.184-.81,2.393-1.583,3.6-2.306a24.915,24.915,0,0,0-4.573-10.865c3.439-1.988,7.091-1.085,6.417-7.44-.511-4.747-5.657-8.747-5.62-13.395.037-3.8,2.418-3.015,3.987-.548,1.321,2.081,2.069,4.834,3.115,7.1,1.769,3.8,2.742,8.9,5.907,11.9,11.445,10.876,9.327-13.505,8.193-19.1-.41-2.019-2.018-15.24,2.181-9.968,2.8,3.526,2.405,11.039,3.355,15.282s1.956,10.879,4.5,14.268c4.834,6.442,6.94-2.7,7.952-6.481a44.667,44.667,0,0,1,6.068-14.318c1.881-2.791,9.282-9.669,6.554-2.193C566.752,474.637,564.446,479.71,562.179,484.52Z" transform="translate(-474.099 -418.383)" fill="#a92428"/>
      <path id="Path_3635" data-name="Path 3635" d="M611.813,783.705a2.43,2.43,0,0,1-2.219,2.6H570.719a2.429,2.429,0,0,1-2.219-2.6h0a2.429,2.429,0,0,1,2.219-2.6h38.875A2.43,2.43,0,0,1,611.813,783.705Z" transform="translate(-525.011 -697.977)" fill="#d48d2a"/>
      <path id="Path_3636" data-name="Path 3636" d="M611.813,741.955a2.43,2.43,0,0,1-2.219,2.6H570.719a2.429,2.429,0,0,1-2.219-2.6h0a2.43,2.43,0,0,1,2.219-2.6h38.875A2.43,2.43,0,0,1,611.813,741.955Z" transform="translate(-525.011 -661.414)" fill="#a96720"/>
      <path id="Path_3637" data-name="Path 3637" d="M396.795,1443.129c-10.9,20.252-42.989,2.492-60.547,6.231-12.5,2.655-48.9,11.576-58.768-2.33,4.872-1.408,10.555-8.946,12.361-12.311a39.453,39.453,0,0,0,4.286-15.265c.537-5.3.972-10.629,1.483-15.886.3-3.029,1.831-13.832,6.692-8.113,3.04,3.588,2.8,9.881,3.04,14.343.3,5.668.647,11.376.922,17.133.186,4.186.324,11.452,2.733,14.965,4.373,6.4,7.227-2.592,7.563-6.243.248-2.753,1.906-15.189,7.488-9.981,2.928,2.741,1.172,11.078,1.783,14.729.994,5.882,7.19,5.233,11.913,4.274,5.458-1.108,9.034-3.4,14.642-1.931,4.611,1.22,9.881,4,12.224-1.782a45.642,45.642,0,0,0,2.717-11.937c.323-2.953-.574-8.76,1.47-11.14,2.317-2.692,5.094.275,6.018,2.8,1.134,3.127.15,7.33,0,10.53-.149,3.3-.373,12.934,3.727,13.791,4.411.934,8.311-5.832,10.043-8.723a30.978,30.978,0,0,1,4-4.909c2.193-2.485,2.68-5.57,3.639-8.722.87-2.841,1.819-7.091,3.962-9.682C400.533,1427.565,398.963,1439.091,396.795,1443.129Z" transform="translate(-270.148 -1234.554)" fill="#a92428"/>
      <path id="Path_3638" data-name="Path 3638" d="M693.208,1126.293a17.38,17.38,0,0,0-2.158-3.611c-3.732-4.893-9.954-6.327-15.618-1.883-5.681,4.462-4.97,12.971-1.228,17.332,4.787,5.591,10.824,7.2,16.2,11.838,6.853,5.919,4.673,19.631-4.885,21.56-7.455,1.508-15.052-2.245-16.609-14.083" transform="translate(-612.945 -993.137)" fill="none" stroke="#ffde6f" stroke-linecap="round" stroke-miterlimit="10" stroke-width="10"/>
      <line id="Line_31" data-name="Line 31" y1="61.855" transform="translate(69.753 120.93)" fill="none" stroke="#ffde6f" stroke-linecap="round" stroke-miterlimit="10" stroke-width="10"/>
    </g>
    <g id="Group_771" transform="translate(123.535 127.425)">
      <path id="Path_85" d="M303.82,475.282s-10.218,20.435-20.55,34.557c-4.133,5.625-8.266,10.218-11.825,12.169a28.2,28.2,0,0,0-8.84,8.036,65.152,65.152,0,0,0-9.184,18.828L226.9,508.691s.918-39.264,4.133-45.808c4.592-9.529,6.888-28.816,8.61-32.72,1.378-2.87,5.051-17.565,5.511-18.713a3.9,3.9,0,0,1,3.1-1.148,4.874,4.874,0,0,1,4.133,3.9,43.916,43.916,0,0,1-.574,22.158c1.033,10.1-1.952,17.565.115,19.632.115.115.23,0,.459-.115,3.674-2.3,26.291-35.475,29.161-36.164C284.3,419.142,303.82,475.282,303.82,475.282Z" transform="translate(-192.803 -395.837)" fill="#ffb27d"/>
      <path id="Union_6" data-name="Union 6" d="M2434.223,185.834a1.606,1.606,0,0,1,.345-.574l.057-.114h-.172c15.269-32.605,28.587-60.044,28.587-60.044s38.116,1.147,39.722,18.254c0,0-.344,17.795-1.377,41.79,0,.574-.115,2.87-.689,13.317-.114,2.525-2.641,3.788-6.658,4.018C2474.749,201.677,2451.9,193.526,2434.223,185.834Z" transform="translate(-2434.223 1.759)" fill="#456079"/>
      <path id="Path_87" d="M317.52,407.929l-8.266,12.055-8.036,11.825a1.637,1.637,0,0,1-1.722.689c-1.952-.23-4.363-2.985-6.2-4.477l-.23-.115a5.931,5.931,0,0,1-.8-8.151l12.284-14.925h0l3.674-4.363a5.931,5.931,0,0,1,8.151-.8l.23.115A5.639,5.639,0,0,1,317.52,407.929Z" transform="translate(-183.312 -397.596)" fill="#ffb27d"/>
      <path id="Path_88" d="M308.159,419.154l-8.036,11.825a1.637,1.637,0,0,1-1.722.689L303.681,404C303.681,404.115,304.485,416.514,308.159,419.154Z" transform="translate(-182.216 -396.767)" fill="#efa26f"/>
      <path id="Path_89" d="M280.212,497.326c-4.133,5.625-8.266,10.218-11.825,12.169a28.2,28.2,0,0,0-8.84,8.036c-2.755-1.263-5.97-2.87-9.07-4.363a5.2,5.2,0,0,1-2.411-6.888,5.97,5.97,0,0,1,2.181-2.3l.115-.115c3.444-1.952,7-9.07,7-9.07Z" transform="translate(-189.745 -383.324)" fill="#efa26f"/>
      <path id="Path_90" d="M242.881,412l-2.181,8.725a4.144,4.144,0,0,0,3.1.115C244.948,420.151,245.981,412.459,242.881,412Z" transform="translate(-190.759 -395.583)" fill="#ffc197"/>
      <path id="Rectangle_203" d="M259.333,397.7h42.019a10.29,10.29,0,0,1,10.332,10.333v97.355a10.29,10.29,0,0,1-10.332,10.333H259.333A10.29,10.29,0,0,1,249,505.388V408.033A10.29,10.29,0,0,1,259.333,397.7Z" transform="translate(-189.531 -397.7)" fill="#244461"/>
      <path id="Path_91" d="M308.185,406.385v99.192a6.125,6.125,0,0,1-6.085,6.085H257.785a6.125,6.125,0,0,1-6.085-6.085V406.385a6.125,6.125,0,0,1,6.085-6.085H302.1A6.051,6.051,0,0,1,308.185,406.385Z" transform="translate(-189.007 -397.315)" fill="#fff"/>
      <path id="Rectangle_204" d="M268.685,398.3h18.139a3.039,3.039,0,0,1,2.985,2.985h0a3.039,3.039,0,0,1-2.985,2.985H268.685a3.039,3.039,0,0,1-2.985-2.985h0A3.039,3.039,0,0,1,268.685,398.3Z" transform="translate(-187.058 -397.611)" fill="#244461"/>
      <path id="Path_92" d="M312.721,447.736l-1.263.459-8.266,3.1c-.23.115-.344.115-.574.23a5.7,5.7,0,0,1-6.659-3.444l-.115-.344a5.7,5.7,0,0,1,3.215-7.233l7.692-2.87.574-.23,1.263-.459a5.694,5.694,0,0,1,7.233,3.215l.115.344A5.6,5.6,0,0,1,312.721,447.736Z" transform="translate(-182.645 -391.94)" fill="#ffb27d"/>
      <path id="Path_93" d="M305.751,447.359a29.725,29.725,0,0,1-5.166,1.607,2.442,2.442,0,0,1-1.722-.8,5.822,5.822,0,0,1-1.033-1.837,4.08,4.08,0,0,1-.23-1.148V443.8a1.461,1.461,0,0,1,.8-1.033h0a29.379,29.379,0,0,1,4.937-1.952,2.084,2.084,0,0,1,2.641,1.148l.23.459.918,2.411A2.081,2.081,0,0,1,305.751,447.359Z" transform="translate(-182.335 -391.333)" fill="#ffd3b6"/>
      <path id="Path_94" d="M305.648,447.181a29.726,29.726,0,0,1-5.166,1.607,2.442,2.442,0,0,1-1.722-.8c-.115-.115-.115-.344-.23-.459a4.079,4.079,0,0,1-.23-1.148V445a1.46,1.46,0,0,1,.8-1.033h0a29.383,29.383,0,0,1,4.937-1.952,2.277,2.277,0,0,1,2.066.344l.918,2.411A2.01,2.01,0,0,1,305.648,447.181Z" transform="translate(-182.231 -391.156)" fill="#ffc197"/>
      <path id="Path_95" d="M308.74,457.411l-6.314,1.722a3.6,3.6,0,0,1-4.477-2.526l-.23-.689a3.6,3.6,0,0,1,2.526-4.477l6.314-1.722a3.6,3.6,0,0,1,4.477,2.526l.23.689A3.693,3.693,0,0,1,308.74,457.411Z" transform="translate(-182.339 -390.02)" fill="#ffb27d"/>
      <path id="Path_96" d="M305.144,456.774a26.729,26.729,0,0,1-4.363.918,2.159,2.159,0,0,1-1.722-1.378,4.813,4.813,0,0,1-.459-1.837,3.179,3.179,0,0,1,.115-1.033,1.035,1.035,0,0,1,.689-.689h0a25.693,25.693,0,0,1,4.248-1.148,1.643,1.643,0,0,1,2.067,1.148l.115.574.459,1.722a1.3,1.3,0,0,1-1.148,1.722Z" transform="translate(-182.187 -389.727)" fill="#ffd3b6"/>
      <path id="Path_97" d="M305.1,456.652a26.726,26.726,0,0,1-4.363.918,2.159,2.159,0,0,1-1.722-1.378,2.237,2.237,0,0,1-.115-.918,3.177,3.177,0,0,1,.115-1.033,1.035,1.035,0,0,1,.689-.689h0a25.7,25.7,0,0,1,4.248-1.148,2.1,2.1,0,0,1,1.952.689l.459,1.722a1.489,1.489,0,0,1-1.263,1.837Z" transform="translate(-182.142 -389.605)" fill="#ffc197"/>
      <path id="Path_98" d="M216.7,522.31s13.088,12.514,21.928,17.336l6.659-4.707v7s13.088,2.3,17.221,0V522.884L225.655,504.4Z" transform="translate(-194.313 -381.902)" fill="#244461"/>
      <path id="Path_99" d="M265.9,541.871c-5.051,1.033-16.073-2.985-16.073-2.985l1.722-16.991-12.4,14.121c-6.314-2.3-16.188-8.5-21.928-12.284-2.87-1.837-4.822-3.215-4.822-3.215,8.266-13.318,16.532-25.717,16.532-25.717,2.411,4.822,8.151,9.07,14.466,12.514a127.851,127.851,0,0,0,22.158,8.955C265.555,526.372,265.9,541.871,265.9,541.871Z" transform="translate(-194.95 -383.324)" fill="#fff"/>
      <path id="Path_100" d="M312.559,437.5h-.115l-8.381,2.181a6.805,6.805,0,0,1-8.381-4.363l-.459-1.722A6.416,6.416,0,0,1,299.7,425.9l2.755-.689,5.625-1.378a6.805,6.805,0,0,1,8.381,4.363l.459,1.722A6.331,6.331,0,0,1,312.559,437.5Z" transform="translate(-182.714 -393.871)" fill="#ffb27d"/>
      <path id="Path_101" d="M308,434.8l-4.018,1.837h0c-.115,0-.344.115-.459.115h-.344a.643.643,0,0,1-.574-.689c0-.115,0-.115.115-.23a4.489,4.489,0,0,0,.23-2.755l-.115-.344h0l-.344-1.148a4.471,4.471,0,0,0-1.492-2.3l-.23-.23a1.04,1.04,0,0,1-.23-1.607,1.146,1.146,0,0,1,.574-.459h0l4.477-.689A2.086,2.086,0,0,1,308,427.912l.344,1.263.8,2.755C309.377,433.194,309.147,434.456,308,434.8Z" transform="translate(-181.942 -393.471)" fill="#ffd3b6"/>
      <path id="Path_102" d="M307.9,434.566l-4.018,1.837h0a4.074,4.074,0,0,1-.8.115.643.643,0,0,1-.574-.689c0-.115,0-.115.115-.23a4.49,4.49,0,0,0,.23-2.755l-.115-.344h0l-.344-1.148a4.472,4.472,0,0,0-1.492-2.3,1.054,1.054,0,0,1,.689-.459h0l4.477-.689a2.013,2.013,0,0,1,2.3,1.148l.8,2.755C309.281,432.959,309.051,434.222,307.9,434.566Z" transform="translate(-181.846 -393.236)" fill="#ffc197"/>
      <path id="Path_103" d="M249.689,479.367s-1.837-15.843-3.444-18.943-3.1-9.3-.459-13.892S249.23,433.1,249.23,433.1c1.033,10.1-1.952,17.565.115,19.632.115.115.23,0,.459-.115Z" transform="translate(-190.22 -392.459)" fill="#efa26f"/>
      <g id="Group_1077" data-name="Group 1077" transform="translate(0 9)">
        <rect id="Rectangle_241" data-name="Rectangle 241" width="48" height="19" rx="4" transform="translate(66.707 56.348)" fill="#a92428"/>
        <text id="Sell" transform="translate(80.707 70.348)" fill="#fff" font-size="12" font-family="Roboto-Medium, Roboto" font-weight="500"><tspan x="0" y="0">Sell</tspan></text>
      </g>
      <path id="Path_87-2" data-name="Path 87" d="M369.248,562.066a2.514,2.514,0,0,1-.344.574,25.71,25.71,0,0,1-11.251,12.284h-35.59c-2.3-1.607-14.58-9.873-19.632-16.073-1.033-1.263-4.592-11.366-7.462-20.091v-.115a10.679,10.679,0,0,1-.459-1.492c-1.837-5.74-3.444-10.677-3.674-11.71-.115-.689-.115-1.263-.23-1.952h0v-.23c-.115-3.674,0-10.792.23-16.532v-1.148c0-.918.115-1.837.115-2.641v-.23c.115-2.181.115-3.789.115-4.363V498a4.434,4.434,0,0,1,1.837-.344,6.671,6.671,0,0,1,3.789,1.378,8.647,8.647,0,0,1,2.066,3.444c0,.115,0,.115.115.23a22.661,22.661,0,0,1,.918,2.985c.115.23.115.459.23.689,1.378,5.166,2.411,11.251,2.87,12.858.8,2.641,10.907,14.351,11.481,15.04h0V515.914l-7.577-20.206-1.263-3.444-1.837-4.822L302.431,484l-.23-.689a75.639,75.639,0,0,1-4.363-8.61,42.385,42.385,0,0,1-2.181-6.429c-.115-.459-.23-1.033-.344-1.492a14.069,14.069,0,0,1-.23-2.181v-.574h0a6.5,6.5,0,0,1,.344-2.066,3.271,3.271,0,0,1,2.181-2.526,3.15,3.15,0,0,1,1.492-.23h.344a.422.422,0,0,1,.344.115.877.877,0,0,1,.574.23h0a2.682,2.682,0,0,1,.8.8s.459.574,1.148,1.607c.344.459.8,1.033,1.263,1.722.574.689,1.148,1.492,1.837,2.411a16.432,16.432,0,0,1,1.263,1.722c1.837,2.526,3.674,4.822,4.133,5.4,2.64,3.674,9.644,15.5,9.644,15.5l8.151.344a5.535,5.535,0,0,1,3.444,1.492c2.87,2.755,9.184,8.61,9.988,9.414,0,.344,4.937,2.641,8.61,4.707,2.755,1.148,7.807,5.166,7.807,5.166a10.494,10.494,0,0,1,2.3,2.755c1.607,3.559,5.74,31.916,8.266,49.137C369.248,561.836,369.248,561.951,369.248,562.066Z" transform="translate(-183.377 -388.594)" fill="#ffb27d"/>
      <path id="Path_105" d="M316.7,485s7.577,12.4,8.61,12.973,4.937,1.378,5.4,0S316.7,485,316.7,485Z" transform="translate(-179.507 -384.775)" fill="#efa26f"/>
      <path id="Path_106" d="M352.132,504.773h0s-5.166-4.133-7.922-5.281c-3.444-1.952-7.922-4.018-8.61-4.592.8.918,6.429,7.348,8.61,7.807C346.277,503.166,350.64,504.314,352.132,504.773Z" transform="translate(-176.709 -383.309)" fill="#efa26f"/>
      <path id="Path_107" d="M311.3,527.284V508.8s4.363,7.348,4.707,11.366S314.285,530.728,311.3,527.284Z" transform="translate(-180.307 -381.251)" fill="#efa26f"/>
      <path id="Path_108" d="M297.787,466.792a29.657,29.657,0,0,1-2.181-4.248,1.992,1.992,0,0,1,.344-1.607,2.767,2.767,0,0,1,1.148-1.148,2.877,2.877,0,0,1,.8-.459,3.351,3.351,0,0,1,1.033-.23,1.417,1.417,0,0,1,.918.459h0a28.648,28.648,0,0,1,2.411,4.018,2.1,2.1,0,0,1-.344,2.526l-.344.23-1.607,1.148a1.531,1.531,0,0,1-2.066-.574C297.787,466.907,297.787,466.907,297.787,466.792Z" transform="translate(-182.637 -388.609)" fill="#ffd3b6"/>
      <path id="Path_109" d="M297.787,466.674a29.658,29.658,0,0,1-2.181-4.248,1.992,1.992,0,0,1,.344-1.607c.115-.115.23-.115.344-.23a2.878,2.878,0,0,1,.8-.459,3.353,3.353,0,0,1,1.033-.23,1.417,1.417,0,0,1,.918.459h0a28.645,28.645,0,0,1,2.411,4.018,2.51,2.51,0,0,1,.115,1.837l-1.607,1.148a1.531,1.531,0,0,1-2.066-.574C297.787,466.788,297.787,466.788,297.787,466.674Z" transform="translate(-182.637 -388.491)" fill="#ffc197"/>
      <path id="Path_110" d="M346.022,557.824l-14.7,7.577h-9.759c-2.3-1.607-14.58-9.873-19.632-16.073C300.9,548.065,297,536.7,293.9,527.4h0c.344,1.263,8.84,19.173,11.251,21.124s14.925,13.891,18.369,13.777,21.239-4.248,22.5-4.477Z" transform="translate(-182.883 -378.497)" fill="#efa26f"/>
      <path id="Path_88-2" data-name="Path 88" d="M365.611,548.615c0,.115-.115.115-.115.23a2.51,2.51,0,0,1-.344.574A25.71,25.71,0,0,1,353.9,561.7c-11.366,6.2-27.094,4.363-38,1.722l1.148-.574a6.081,6.081,0,0,0,1.148-.689c.344-.115.574-.344.918-.459,1.722-.919,4.018-2.067,6.774-3.33h0c11.6-5.625,29.964-13.088,39.608-9.873A.112.112,0,0,0,365.611,548.615Z" transform="translate(-179.625 -375.488)" fill="#f2f7ff"/>
      <path id="Path_112" d="M290.83,499.738h0c.918-.344,2.181-.574,2.755.459.918,1.607-2.526,15.5-2.985,17.221Z" transform="translate(-183.371 -382.636)" fill="#efa26f"/>
      <path id="Path_113" d="M291.044,493.2l-.344,8.381a4.555,4.555,0,0,0,2.755-.459C294.6,500.433,294.029,493.085,291.044,493.2Z" transform="translate(-183.357 -383.561)" fill="#ffc197"/>
      <path id="Path_114" d="M265.278,540.157c-5.051,1.033-16.073-2.985-16.073-2.985l1.722-16.991-12.4,14.121c-6.314-2.3-16.188-8.5-21.928-12.284,14.925-1.607,26.176-16.417,26.176-16.417a127.842,127.842,0,0,0,22.158,8.955C264.933,524.773,265.278,540.157,265.278,540.157Z" transform="translate(-194.328 -381.725)" fill="#f2f7ff"/>
      <circle id="Ellipse_16" cx="2.067" cy="2.067" r="2.067" transform="translate(36.118 145.115) rotate(-89.47)" fill="#f99746"/>
      <path id="Icon_awesome-box" data-name="Icon awesome-box" d="M32.339,11.717,29.127,2.082A3.038,3.038,0,0,0,26.239,0H17.264V12.186H32.415A2.9,2.9,0,0,0,32.339,11.717ZM15.233,0H6.258A3.038,3.038,0,0,0,3.37,2.082L.159,11.717a2.9,2.9,0,0,0-.076.47H15.233ZM0,14.218V29.451A3.047,3.047,0,0,0,3.047,32.5h26.4A3.047,3.047,0,0,0,32.5,29.451V14.218Z" transform="translate(74.448 22.699)" fill="#ffb0b1"/>
    </g>
  </g>
</svg>
